<svg xmlns="http://www.w3.org/2000/svg" viewBox="0 0 148.88 148.88"><defs><style>.cls-1{fill:none;stroke:#fff;stroke-miterlimit:10;stroke-width:2px;}.cls-2{fill:#fff;}</style></defs><title>circle-4</title><g id="Warstwa_2" data-name="Warstwa 2"><g id="Warstwa_1-2" data-name="Warstwa 1"><circle class="cls-1" cx="74.44" cy="74.44" r="73.44"/><circle class="cls-1" cx="94.85" cy="81.94" r="15.01"/><path class="cls-1" d="M73.32,55.08c0,3.16-6.33,5.73-14.14,5.73S45,58.24,45,55.08s6.34-5.72,14.15-5.72S73.32,51.92,73.32,55.08Z"/><path class="cls-1" d="M73.32,64.55c0,2-2.45,3.69-6.17,4.72h0a32.42,32.42,0,0,1-15.9,0h0c-3.72-1-6.18-2.76-6.18-4.72"/><line class="cls-1" x1="67.15" y1="69.27" x2="67.13" y2="69.27"/><line class="cls-1" x1="51.23" y1="69.27" x2="51.21" y2="69.27"/><path class="cls-1" d="M45,74c0,2,2.46,3.7,6.18,4.73,0,0,0,0,0,0a32.42,32.42,0,0,0,15.9,0s0,0,0,0c3.72-1,6.17-2.77,6.17-4.73"/><line class="cls-1" x1="51.23" y1="78.73" x2="51.21" y2="78.73"/><path class="cls-1" d="M45,83.46c0,2.28,3.31,4.24,8,5.17,0,0,0,0,0,0a33.77,33.77,0,0,0,12.14,0h0c4.73-.93,8-2.89,8-5.17"/><line class="cls-1" x1="67.15" y1="78.73" x2="67.13" y2="78.73"/><path class="cls-1" d="M65.29,88.63h0"/><path class="cls-1" d="M53.07,88.63s0,0,0,0"/><path class="cls-1" d="M45,93.78c0,3.18,6.34,5.74,14.14,5.74S73.32,97,73.32,93.78"/><line class="cls-1" x1="45.03" y1="55.08" x2="45.03" y2="93.79"/><line class="cls-1" x1="73.32" y1="55.08" x2="73.32" y2="93.79"/><path class="cls-2" d="M93.69,87.16a9,9,0,0,1-3.17-.74V83.93a10.62,10.62,0,0,0,1.89.74,6.48,6.48,0,0,0,1.8.3,2.16,2.16,0,0,0,.93-.16.52.52,0,0,0,.3-.51.5.5,0,0,0-.22-.42,2.89,2.89,0,0,0-.71-.39c-.33-.15-.78-.32-1.35-.53a6,6,0,0,1-1.53-.79,2.81,2.81,0,0,1-.86-1,3.2,3.2,0,0,1-.26-1.36,2.43,2.43,0,0,1,.79-1.93A4.2,4.2,0,0,1,93.69,77V76h1.55v1a8.8,8.8,0,0,1,3,.74l-.89,2.13a7,7,0,0,0-2.83-.7,1.69,1.69,0,0,0-.84.15.46.46,0,0,0-.25.43.54.54,0,0,0,.18.41,3.13,3.13,0,0,0,.61.36c.29.13.69.28,1.21.46a6,6,0,0,1,2.25,1.26,2.54,2.54,0,0,1,.68,1.83,2.77,2.77,0,0,1-.8,2,3.88,3.88,0,0,1-2.33,1v1.45H93.69Z"/></g></g></svg>