<svg xmlns="http://www.w3.org/2000/svg" viewBox="0 0 146.88 146.88"><defs><style>.cls-1{fill:#fff;}.cls-2{fill:none;stroke:#a61a17;stroke-miterlimit:10;stroke-width:2px;}</style></defs><title>circle-2</title><g id="Warstwa_2" data-name="Warstwa 2"><g id="Warstwa_1-2" data-name="Warstwa 1"><circle class="cls-1" cx="73.44" cy="73.44" r="73.44"/><path class="cls-2" d="M42.61,76.06c.6.75,2.55,3.11,3.87,4.62,0,0,.29.33.85.91"/><path class="cls-2" d="M60,92.34l-.09-.07"/><path class="cls-2" d="M82,96.89A4,4,0,0,1,82.68,98a4.18,4.18,0,0,1-1.17,4.65c-1.58,1.23-4.26-.11-5.91-.93-.82-.4-1.61-.82-2.41-1.24h0"/><path class="cls-2" d="M97.93,88.27a8,8,0,0,1-.18,2.94,4.16,4.16,0,0,1-1.4,2.19,4.34,4.34,0,0,1-2.87,1.22c-1.23,0-1.71-.8-3.69-2.21-.56-.39-1.08-.73-1.56-1a5.44,5.44,0,0,1,1.52,1.78A4.35,4.35,0,0,1,90,97.05a3.88,3.88,0,0,1-2.81,2c-.45.06-1.2.06-3.53-1.2-.58-.3-1.14-.64-1.65-1a22.76,22.76,0,0,1-2.3-1.52h0"/><path class="cls-2" d="M66.89,96.91l-.43-.26"/><path class="cls-2" d="M54.23,87.92a.69.69,0,0,0-.13-.11"/><path class="cls-2" d="M91.83,85.13l3.4,1.5h0l.55.33c1.17.69,1.26.82,2.22,1.36,1.93,1.06,2.91,1.59,3.94,1.47a3.55,3.55,0,0,0,2.7-1.85c.72-1.44,0-3.07-.37-3.81-1.58-3.37-4.72-3.87-12-8-3.22-1.81-3-1.93-8-4.8-6.21-3.56-5.37-2.7-6.65-3.69-1.91-1.49-3.36-3.1-5-2.71-.64.15-.74.44-1.73,1.11a15,15,0,0,1-6.39,2.21c-2.07.36-3.13.53-4.06-.12a2.66,2.66,0,0,1-1.24-2.46,2.19,2.19,0,0,1,1-1.23c2.95-2,3-3.85,8.86-7.75,2.83-1.88,4.25-2.82,5.91-3.2A65.28,65.28,0,0,1,82,53.36c2.66,0,3.37,0,4.31.5,1.29.64,1.25,1.25,3.32,2.58a9.91,9.91,0,0,0,3.2,1.48,6.69,6.69,0,0,0,2.71.12,6.5,6.5,0,0,0,2.83-1.23"/><line class="cls-2" x1="91.72" y1="84.87" x2="91.73" y2="84.87"/><path class="cls-2" d="M52.79,56.3c.66.48,2.32,1.75,3.86,1.58.45-.05,1.25,0,3.94-1.32"/><path class="cls-2" d="M51.49,91.26H49.84a4.2,4.2,0,0,1-3-1.8,5.6,5.6,0,0,1-1.07-2.37,7.14,7.14,0,0,1,1.59-5.49A7.31,7.31,0,0,1,50,79.46c1.86-.86,4.87-1.22,6.06.32a3.1,3.1,0,0,1,.9,2.83"/><path class="cls-2" d="M52.39,92.17A4,4,0,0,0,53.7,95a3.83,3.83,0,0,0,3.36.57c2-.57,2-2.4,4.93-6.89,1.82-2.78,2.59-3.26,2.54-4.67a4.3,4.3,0,0,0-3-4,4.11,4.11,0,0,0-3.7,1.06c-.53.53-.54.87-1.44,2.61-.54,1-.6,1-1.48,2.58C53.2,89.4,52.32,91,52.39,92.17Z"/><path class="cls-2" d="M59.32,96a4.18,4.18,0,0,0,.57,1.4,4.26,4.26,0,0,0,5.62.86c.67-.53.61-1,1.4-2.59.71-1.46.85-1.3,2-3.48,1.32-2.41,1.35-3,1.35-3.28a3.92,3.92,0,0,0-1.35-3,3.86,3.86,0,0,0-3.32-.82c-.87.22-1.16.68-3.49,3.9-.95,1.31-2.9,4-2.95,5.7A5.65,5.65,0,0,0,59.32,96Z"/><path class="cls-2" d="M66.17,99.88a3.73,3.73,0,0,0,1.93,2.21,3.79,3.79,0,0,0,2.5.08,4.76,4.76,0,0,0,1.89-.9c.8-.64.82-1.11,2-3.4,1-2,1.27-2.15,1.31-2.91a4.08,4.08,0,0,0-.94-2.71,3.81,3.81,0,0,0-2.47-1.31,3.87,3.87,0,0,0-2.54.69c-.7.48-1,1-2,3.12C66,98.79,66,99.39,66.17,99.88Z"/><rect class="cls-2" x="25.55" y="52.53" width="29.74" height="11.69" transform="translate(-29.44 45.68) rotate(-45)"/><rect class="cls-2" x="94.58" y="56.94" width="29.74" height="11.69" transform="translate(99.69 188.58) rotate(-115.4)"/></g></g></svg>