<svg xmlns="http://www.w3.org/2000/svg" viewBox="0 0 333.97 161.91"><defs><style>.cls-1{fill:#e1e0e0;}.cls-2{fill:none;}.cls-3{fill:#d54e2b;}.cls-4{fill:#303031;}.cls-5{fill:#f7d49b;}.cls-6{fill:#ed7173;}.cls-7{fill:#7b7ebb;}.cls-8{fill:#b4b4b5;}.cls-9{fill:#989898;}</style></defs><title>index-vector-img</title><g id="Warstwa_2" data-name="Warstwa 2"><g id="Warstwa_1-2" data-name="Warstwa 1"><polygon class="cls-1" points="121.49 12.48 91.79 12.48 91.79 7 142.69 7 142.69 12.48 135.62 12.48 121.49 12.48"/><rect class="cls-1" x="93.42" y="12.48" width="47.71" height="59.77"/><line class="cls-2" x1="135.62" y1="12.48" x2="121.49" y2="12.48"/><rect class="cls-3" x="1.34" y="148.96" width="26.26" height="11"/><rect class="cls-3" x="27.6" y="148.96" width="26.26" height="11"/><rect class="cls-3" x="14.46" y="137.97" width="26.26" height="11"/><rect class="cls-3" x="27.6" y="126.98" width="26.26" height="11"/><rect class="cls-3" x="14.46" y="115.98" width="26.26" height="11"/><rect class="cls-3" x="1.34" y="115.98" width="13.14" height="11"/><rect class="cls-3" x="1.34" y="137.97" width="13.14" height="11"/><rect class="cls-3" x="40.72" y="115.98" width="26.26" height="11"/><rect class="cls-3" x="27.6" y="104.98" width="26.26" height="11"/><rect class="cls-3" x="40.72" y="137.97" width="26.26" height="11"/><rect class="cls-3" x="1.34" y="126.98" width="26.26" height="11"/><rect class="cls-3" x="1.34" y="104.98" width="26.26" height="11"/><rect class="cls-3" x="53.85" y="148.96" width="13.14" height="11"/><path class="cls-4" d="M27.6,161.28H1.34A1.31,1.31,0,0,1,0,160V149a1.32,1.32,0,0,1,1.33-1.32H27.6A1.32,1.32,0,0,1,28.92,149v11A1.31,1.31,0,0,1,27.6,161.28ZM2.66,158.64H26.27V150.3H2.66Z"/><path class="cls-4" d="M53.85,161.28H27.6A1.31,1.31,0,0,1,26.27,160V149a1.32,1.32,0,0,1,1.33-1.32H53.85A1.32,1.32,0,0,1,55.18,149v11A1.31,1.31,0,0,1,53.85,161.28Zm-24.93-2.64H52.53V150.3H28.92Z"/><path class="cls-4" d="M40.72,150.29H14.46A1.31,1.31,0,0,1,13.14,149V138a1.31,1.31,0,0,1,1.32-1.33H40.72A1.32,1.32,0,0,1,42,138v11A1.31,1.31,0,0,1,40.72,150.29Zm-24.94-2.65H39.39V139.3H15.78Z"/><path class="cls-4" d="M53.85,139.29H27.6A1.32,1.32,0,0,1,26.27,138V127a1.32,1.32,0,0,1,1.33-1.33H53.85A1.32,1.32,0,0,1,55.18,127v11A1.32,1.32,0,0,1,53.85,139.29Zm-24.93-2.65H52.53V128.3H28.92Z"/><path class="cls-4" d="M40.72,128.3H14.46A1.31,1.31,0,0,1,13.14,127V116a1.31,1.31,0,0,1,1.32-1.32H40.72A1.32,1.32,0,0,1,42,116v11A1.32,1.32,0,0,1,40.72,128.3Zm-24.94-2.66H39.39v-8.33H15.78Z"/><path class="cls-4" d="M14.46,128.3H1.32A1.31,1.31,0,0,1,0,127V116a1.32,1.32,0,0,1,1.32-1.32H14.46A1.32,1.32,0,0,1,15.78,116v11A1.33,1.33,0,0,1,14.46,128.3Zm-11.8-2.66H13.14v-8.33H2.66v8.33Z"/><path class="cls-4" d="M14.46,150.29H1.32A1.32,1.32,0,0,1,0,149V138a1.32,1.32,0,0,1,1.32-1.33H14.46A1.32,1.32,0,0,1,15.78,138v11A1.32,1.32,0,0,1,14.46,150.29Zm-11.8-2.65H13.14V139.3H2.66v8.34Z"/><path class="cls-4" d="M67,128.3H40.72A1.31,1.31,0,0,1,39.39,127V116a1.32,1.32,0,0,1,1.33-1.32H67A1.32,1.32,0,0,1,68.3,116v11A1.32,1.32,0,0,1,67,128.3Zm-24.93-2.66H65.67v-8.33H42.05Z"/><path class="cls-4" d="M53.85,117.31H27.6A1.32,1.32,0,0,1,26.27,116V105a1.32,1.32,0,0,1,1.33-1.32H53.85A1.32,1.32,0,0,1,55.18,105v11A1.32,1.32,0,0,1,53.85,117.31Zm-24.93-2.65H52.53v-8.34H28.92Z"/><path class="cls-4" d="M67,150.29H40.72A1.32,1.32,0,0,1,39.39,149V138a1.32,1.32,0,0,1,1.33-1.33H67A1.32,1.32,0,0,1,68.3,138v11A1.31,1.31,0,0,1,67,150.29Zm-24.93-2.65H65.67V139.3H42.05Z"/><path class="cls-4" d="M27.6,139.29H1.34A1.32,1.32,0,0,1,0,138V127a1.32,1.32,0,0,1,1.33-1.33H27.6A1.32,1.32,0,0,1,28.92,127v11A1.32,1.32,0,0,1,27.6,139.29ZM2.66,136.64H26.27V128.3H2.66Z"/><path class="cls-4" d="M27.6,117.31H1.34A1.32,1.32,0,0,1,0,116V105a1.32,1.32,0,0,1,1.33-1.32H27.6A1.32,1.32,0,0,1,28.92,105v11A1.32,1.32,0,0,1,27.6,117.31ZM2.66,114.66H26.27v-8.34H2.66Z"/><path class="cls-4" d="M67,161.28H53.84A1.31,1.31,0,0,1,52.52,160V149a1.32,1.32,0,0,1,1.32-1.32H67A1.32,1.32,0,0,1,68.3,149v11A1.31,1.31,0,0,1,67,161.28Zm-11.8-2.64H65.65V150.3H55.18Z"/><rect class="cls-3" x="53.85" y="126.98" width="13.14" height="11"/><path class="cls-4" d="M67,139.29H53.84A1.32,1.32,0,0,1,52.52,138V127a1.32,1.32,0,0,1,1.32-1.33H67A1.32,1.32,0,0,1,68.3,127v11A1.31,1.31,0,0,1,67,139.29Zm-11.8-2.65H65.65V128.3H55.18Z"/><path class="cls-5" d="M4.66,72.24V67.82a112.71,112.71,0,0,1,0-54.36V7.93H8.74a79.94,79.94,0,0,1,41.87,0h5.32v4.61c5.18,17.1,4.7,35.89,0,55.75v3.95H50.61c-12.36,3.81-25.9,4.13-40.95,0Z"/><path class="cls-4" d="M30.71,76.53a80.8,80.8,0,0,1-21.24-3H4.65a1.32,1.32,0,0,1-1.32-1.32V68a114.18,114.18,0,0,1,0-54.69V7.94A1.32,1.32,0,0,1,4.65,6.62h3.9a81.68,81.68,0,0,1,42.22,0h5.14a1.31,1.31,0,0,1,1.32,1.32v4.42c4.92,16.37,4.92,35.24,0,56.1v3.81a1.31,1.31,0,0,1-1.32,1.32H50.79A68.86,68.86,0,0,1,30.71,76.53ZM6,70.92H9.66A1,1,0,0,1,10,71c14.31,3.92,27.46,3.92,40.2,0a1.2,1.2,0,0,1,.38,0h4V68.3a1.54,1.54,0,0,1,0-.3c4.87-20.54,4.88-39.07,0-55.06a1.27,1.27,0,0,1-.05-.39V9.26h-4a1.39,1.39,0,0,1-.35,0,79.22,79.22,0,0,0-41.18,0,1.34,1.34,0,0,1-.35,0H6v4.21a1.65,1.65,0,0,1,0,.32A111.77,111.77,0,0,0,6,67.53a1.54,1.54,0,0,1,0,.3v3.09Z"/><path class="cls-6" d="M1.54,47H59.32a104,104,0,0,0-.07-17.12H1.83A111.19,111.19,0,0,0,1.54,47Z"/><path class="cls-4" d="M59.32,48.34H1.54A1.33,1.33,0,0,1,.21,47.1,112.37,112.37,0,0,1,.52,29.78a1.33,1.33,0,0,1,1.32-1.21H59.25a1.34,1.34,0,0,1,1.33,1.21,105.36,105.36,0,0,1,.06,17.33A1.33,1.33,0,0,1,59.32,48.34ZM2.79,45.68H58.08A102.55,102.55,0,0,0,58,31.21h-55A109.07,109.07,0,0,0,2.79,45.68Z"/><path class="cls-4" d="M16.84,42.34l-.39,0a1.59,1.59,0,0,1-.41-.12,1.66,1.66,0,0,1-.4-.27,1.31,1.31,0,0,1-.34-.45,3.19,3.19,0,0,1-.23-.7,5.46,5.46,0,0,1-.09-1V37.07a4.78,4.78,0,0,1,.09-1,2.93,2.93,0,0,1,.24-.69,1.64,1.64,0,0,1,.34-.44,1.81,1.81,0,0,1,.4-.26,2.77,2.77,0,0,1,.41-.12l.38,0a1.85,1.85,0,0,1,.76.13,1.19,1.19,0,0,1,.49.35,1.36,1.36,0,0,1,.27.52,2.53,2.53,0,0,1,.08.63,3.09,3.09,0,0,1,0,.45,2.78,2.78,0,0,1-.08.46H17.4V36.7a2.53,2.53,0,0,0-.13-1,.45.45,0,0,0-.41-.31.64.64,0,0,0-.28.07.51.51,0,0,0-.2.21,1.47,1.47,0,0,0-.12.4,5.08,5.08,0,0,0,0,.62v3.49a4.73,4.73,0,0,0,0,.6,1.26,1.26,0,0,0,.11.37.43.43,0,0,0,.2.2.69.69,0,0,0,.29.07.42.42,0,0,0,.22,0,1,1,0,0,0,.19-.16.87.87,0,0,0,.12-.29,2,2,0,0,0,.05-.4v-.74h1v.7a1.94,1.94,0,0,1-.41,1.37A1.76,1.76,0,0,1,16.84,42.34Z"/><path class="cls-4" d="M20.3,34.63h2.83v.91H21.46v2.28h1.3v.91h-1.3v2.62h1.73v.91H20.31V34.63Z"/><path class="cls-4" d="M24.92,34.63h1.51l.74,2.95c.08.33.13.64.18.94s.1.57.14.84h0c0-.27.08-.55.13-.84a8.7,8.7,0,0,1,.19-.94l.76-2.95h1.48v7.64H29V39.75c0-.39,0-.77,0-1.13s0-.68,0-1,0-.56,0-.78,0-.42,0-.55h-.08l-1.15,5h-.73L26,36.3h-.08c0,.13,0,.32,0,.55s0,.49,0,.78,0,.63,0,1,0,.74,0,1.13v2.52H25V34.63Z"/><path class="cls-4" d="M32.3,34.63h2.83v.91H33.46v2.28h1.3v.91h-1.3v2.62h1.73v.91H32.31V34.63Z"/><path class="cls-4" d="M36.94,34.63h.93l1.86,5.12h0c0-.13,0-.26,0-.41s0-.3,0-.49a6.05,6.05,0,0,1,0-.63c0-.24,0-.51,0-.8V34.63h1v7.64h-1l-1.85-5h0c0,.13,0,.28,0,.44s0,.34,0,.55,0,.45,0,.73,0,.61,0,1v2.25h-1Z"/><path class="cls-4" d="M43.6,35.54H42.37v-.91H46v.91H44.77v6.73H43.6V35.54Z"/><path class="cls-4" d="M141.13,73.58H93.42a1.32,1.32,0,0,1-1.32-1.32V12.48a1.32,1.32,0,0,1,1.32-1.32h28.07a1.33,1.33,0,0,1,0,2.65H94.76V70.94h45.06V13.81h-4.2a1.33,1.33,0,0,1,0-2.65h5.52a1.32,1.32,0,0,1,1.33,1.32V72.26A1.34,1.34,0,0,1,141.13,73.58Z"/><path class="cls-4" d="M87.88,53c-2.65,0-3.78-1.33-4.28-2.46-2.15-5,4.73-15.95,8.87-20.19a1.33,1.33,0,1,1,1.9,1.85C89.79,36.93,84.74,46.52,86,49.53c.11.25.38.87,1.83.87H88c5.8-.11,20.36-19.76,28.18-32.12a1.33,1.33,0,0,1,2.25,1.42c-.06.08-5.26,8.29-11.46,16.41A107.41,107.41,0,0,1,97.15,47.5C93.36,51.2,90.38,53,88,53.06A.27.27,0,0,0,87.88,53Z"/><path class="cls-7" d="M121.53,7V24.87A3.52,3.52,0,0,0,125,28.39h0a3.52,3.52,0,0,0,3.51-3.52V17h3.56a3.51,3.51,0,0,0,3.51-3.51V7"/><path class="cls-4" d="M125,29.71a4.84,4.84,0,0,1-4.84-4.84V7a1.33,1.33,0,1,1,2.65,0V24.87a2.19,2.19,0,1,0,4.38,0V17a1.32,1.32,0,0,1,1.32-1.32h3.56a2.2,2.2,0,0,0,2.19-2.19V7A1.33,1.33,0,1,1,137,7v6.45a4.84,4.84,0,0,1-4.84,4.84h-2.23v6.57A4.85,4.85,0,0,1,125,29.71Z"/><path class="cls-4" d="M142.69,13.81h-7.07a1.33,1.33,0,0,1,0-2.65h5.75V8.33H93.13v2.83h28.36a1.33,1.33,0,0,1,0,2.65H91.79a1.32,1.32,0,0,1-1.32-1.33V7a1.32,1.32,0,0,1,1.32-1.33h50.89A1.32,1.32,0,0,1,144,7v5.47A1.31,1.31,0,0,1,142.69,13.81Z"/><polygon class="cls-8" points="207 50.46 207 16.31 191.38 16.31 191.38 50.46 170.7 50.46 170.7 68.4 227.67 68.4 227.67 50.46 207 50.46"/><rect class="cls-9" x="163.45" y="48.55" width="7.24" height="21.76"/><rect class="cls-9" x="227.67" y="48.55" width="7.58" height="21.76"/><rect class="cls-9" x="188.31" y="8.66" width="21.76" height="7.67"/><path class="cls-4" d="M227.67,69.72h-57a1.32,1.32,0,0,1-1.32-1.32V50.46a1.32,1.32,0,0,1,1.32-1.32h19.35V16.31A1.32,1.32,0,0,1,191.38,15H207a1.32,1.32,0,0,1,1.32,1.33V49.13h19.35A1.31,1.31,0,0,1,229,50.45v18A1.31,1.31,0,0,1,227.67,69.72ZM172,67.07h54.32V51.79H207a1.32,1.32,0,0,1-1.33-1.33V17.63h-13V50.45a1.32,1.32,0,0,1-1.32,1.32H172v15.3Z"/><path class="cls-4" d="M170.7,71.63h-7.24a1.31,1.31,0,0,1-1.32-1.32V48.55a1.31,1.31,0,0,1,1.32-1.32h7.24A1.32,1.32,0,0,1,172,48.55V70.31A1.33,1.33,0,0,1,170.7,71.63ZM164.78,69h4.6V49.86h-4.6Z"/><path class="cls-4" d="M235.25,71.63h-7.58a1.32,1.32,0,0,1-1.32-1.32V48.55a1.32,1.32,0,0,1,1.32-1.32h7.58a1.32,1.32,0,0,1,1.32,1.32V70.31A1.32,1.32,0,0,1,235.25,71.63ZM229,69h4.93V49.86H229Z"/><path class="cls-4" d="M210.06,17.64H188.3A1.32,1.32,0,0,1,187,16.32V8.65a1.31,1.31,0,0,1,1.32-1.32h21.76a1.31,1.31,0,0,1,1.32,1.32v7.67A1.31,1.31,0,0,1,210.06,17.64ZM189.64,15h19.11V10H189.64Z"/><path class="cls-8" d="M306.65,53.39l6.84,12L301.21,59.1a5.93,5.93,0,0,1-1.1-.75l-38.63-34.8,7.67-8.07,36.68,36.87A5.15,5.15,0,0,1,306.65,53.39Z"/><rect class="cls-8" x="252.68" y="15.67" width="22" height="4.56" transform="translate(68.95 196.64) rotate(-46.43)"/><path class="cls-4" d="M313.49,66.67a1.39,1.39,0,0,1-.6-.14l-12.28-6.25a6.23,6.23,0,0,1-1.38-.94L260.6,24.54a1.33,1.33,0,0,1-.08-1.9l7.67-8.07a1.31,1.31,0,0,1,.95-.42h0a1.33,1.33,0,0,1,.94.39L306.77,51.4a6.43,6.43,0,0,1,1,1.32l6.85,12a1.33,1.33,0,0,1-.19,1.57A1.23,1.23,0,0,1,313.49,66.67ZM263.38,23.48,301,57.36a4.05,4.05,0,0,0,.8.55l8.31,4.22L305.48,54h0a3.7,3.7,0,0,0-.58-.77L269.18,17.38Z"/><path class="cls-4" d="M257.74,28.83a1.29,1.29,0,0,1-.91-.36l-3.3-3.14a1.36,1.36,0,0,1-.42-.93,1.32,1.32,0,0,1,.36-.94L268.64,7.51a1.35,1.35,0,0,1,.92-.41,1.31,1.31,0,0,1,.95.36l3.3,3.14a1.33,1.33,0,0,1,.06,1.87L258.7,28.41A1.38,1.38,0,0,1,257.74,28.83Zm-1.43-4.52,1.39,1.31L271,11.6l-1.39-1.31Z"/><path class="cls-8" d="M288.61,59.5,279,69.36l2.63-13.51a5,5,0,0,1,.42-1.26L304.9,7.89l9.86,5.16L289.4,58.44A5.22,5.22,0,0,1,288.61,59.5Z"/><rect class="cls-8" x="308.62" y="-2.54" width="4.56" height="22" transform="translate(159.22 279.98) rotate(-62.37)"/><path class="cls-4" d="M279,70.69a1.48,1.48,0,0,1-.62-.14,1.31,1.31,0,0,1-.68-1.43l2.63-13.51a6.28,6.28,0,0,1,.54-1.58l22.85-46.7a1.32,1.32,0,0,1,1.8-.61l9.87,5.16a1.33,1.33,0,0,1,.65.8,1.28,1.28,0,0,1-.11,1l-25.36,45.4a6.78,6.78,0,0,1-1,1.34h0L280,70.31A1.47,1.47,0,0,1,279,70.69Zm26.48-61L283.23,55.18a3.31,3.31,0,0,0-.3.92l-1.78,9.16,6.51-6.69h0a3.94,3.94,0,0,0,.59-.77l24.69-44.21Z"/><path class="cls-4" d="M319.57,16.89a1.55,1.55,0,0,1-.62-.14L299.46,6.54a1.34,1.34,0,0,1-.66-.78,1.37,1.37,0,0,1,.1-1l2.11-4A1.33,1.33,0,0,1,302.8.15l19.5,10.21a1.38,1.38,0,0,1,.65.77,1.34,1.34,0,0,1-.09,1l-2.11,4A1.34,1.34,0,0,1,319.57,16.89ZM301.86,4.81l17.15,9,.88-1.69-17.13-9Z"/><rect class="cls-3" x="263.59" y="106.21" width="69.05" height="26.26"/><rect class="cls-3" x="263.59" y="132.47" width="69.05" height="26.26"/><path class="cls-4" d="M332.63,133.8h-69a1.32,1.32,0,0,1-1.33-1.33V106.21a1.32,1.32,0,0,1,1.33-1.32h69a1.32,1.32,0,0,1,1.32,1.32v26.26A1.34,1.34,0,0,1,332.63,133.8Zm-67.71-2.65h66.39V107.54H264.92Z"/><path class="cls-4" d="M332.63,160.05h-69a1.31,1.31,0,0,1-1.33-1.32V132.47a1.32,1.32,0,0,1,1.33-1.32h69a1.32,1.32,0,0,1,1.32,1.32v26.26A1.33,1.33,0,0,1,332.63,160.05Zm-67.71-2.64h66.39V133.8H264.92Z"/><rect class="cls-4" x="271.16" y="111.21" width="2.65" height="16.26"/><rect class="cls-4" x="281.41" y="111.21" width="2.65" height="16.26"/><rect class="cls-4" x="291.66" y="111.21" width="2.65" height="16.26"/><rect class="cls-4" x="301.91" y="111.21" width="2.65" height="16.26"/><rect class="cls-4" x="312.16" y="111.21" width="2.65" height="16.26"/><rect class="cls-4" x="322.41" y="111.21" width="2.65" height="16.26"/><rect class="cls-4" x="271.16" y="137.47" width="2.65" height="16.26"/><rect class="cls-4" x="281.41" y="137.47" width="2.65" height="16.26"/><rect class="cls-4" x="291.66" y="137.47" width="2.65" height="16.26"/><rect class="cls-4" x="301.91" y="137.47" width="2.65" height="16.26"/><rect class="cls-4" x="312.16" y="137.47" width="2.65" height="16.26"/><rect class="cls-4" x="322.41" y="137.47" width="2.65" height="16.26"/><path class="cls-8" d="M173.07,114.91s9.67-5.76,19.21-6.29,14.32-4.5,24.39-2.91,16.44,9.2,16.44,9.2Z"/><polygon class="cls-6" points="168.35 114.91 237.56 114.91 224.41 147.89 176.26 136.91 168.35 114.91"/><path class="cls-4" d="M224.41,149.23a1.43,1.43,0,0,1-.29,0l-48.15-11a1.34,1.34,0,0,1-.95-.85l-7.91-22a1.33,1.33,0,0,1,1.24-1.78h69.21a1.3,1.3,0,0,1,1.09.59,1.32,1.32,0,0,1,.14,1.23l-13.15,33A1.32,1.32,0,0,1,224.41,149.23Zm-47.15-13.46,46.33,10.59,12-30.11H170.24Z"/><path class="cls-4" d="M180.36,157.84h-7a1.32,1.32,0,0,1-1.33-1.33v-20a1.33,1.33,0,1,1,2.65,0v18.65h4.82l6.8-16a1.33,1.33,0,0,1,2.44,1L181.57,157A1.27,1.27,0,0,1,180.36,157.84Z"/><path class="cls-4" d="M239,152.62l-.29,0-70.6-15.9a1.33,1.33,0,1,1,.58-2.6l67.58,15.22-7.95-13.24a1.32,1.32,0,1,1,2.27-1.36l9.56,15.9a1.32,1.32,0,0,1-.07,1.46A1.39,1.39,0,0,1,239,152.62Z"/><circle class="cls-8" cx="238.96" cy="151.3" r="7.55"/><path class="cls-4" d="M239,160.19a8.88,8.88,0,1,1,8.87-8.87A8.88,8.88,0,0,1,239,160.19Zm0-15.12a6.23,6.23,0,1,0,6.23,6.23A6.24,6.24,0,0,0,239,145.07Z"/><path class="cls-4" d="M173.07,116.24a1.32,1.32,0,0,1-.67-2.46c.4-.24,10.08-5.94,19.83-6.47a48.53,48.53,0,0,0,9.61-1.68c4.52-1.14,8.77-2.21,15.06-1.22,10.45,1.64,17,9.34,17.24,9.66a1.33,1.33,0,0,1-2,1.7c-.05-.07-6.18-7.26-15.62-8.74-5.74-.91-9.75.09-14,1.16a50.56,50.56,0,0,1-10.1,1.77c-9.12.5-18.52,6.05-18.62,6.1A1.42,1.42,0,0,1,173.07,116.24Z"/><path class="cls-4" d="M168.35,116.24a1.31,1.31,0,0,1-1.24-.89l-2.38-6.73h-6.88a1.33,1.33,0,1,1,0-2.65h7.81a1.31,1.31,0,0,1,1.25.89l2.7,7.61a1.34,1.34,0,0,1-.8,1.7A1.56,1.56,0,0,1,168.35,116.24Z"/><polygon class="cls-8" points="134.8 94.36 141.4 94.36 141.4 99.77 137.37 99.77 128.59 117.99 117.24 117.99 105.88 117.99 97.1 99.77 93.07 99.77 93.07 94.36 99.67 94.36 108.88 111.27 117.24 111.27 124.95 111.27 134.8 94.36"/><path class="cls-8" d="M111.88,118v15.7h0a11,11,0,0,0-10.95,11v15.94h12.91V144.85h0a10,10,0,0,0,10-10V118"/><path class="cls-4" d="M128.59,119.31H105.87a1.31,1.31,0,0,1-1.19-.75L96.26,101.1H93.07a1.31,1.31,0,0,1-1.32-1.33V94.36A1.31,1.31,0,0,1,93.07,93h6.6a1.32,1.32,0,0,1,1.16.69L109.65,110h14.54l9.46-16.25a1.3,1.3,0,0,1,1.15-.66h6.6a1.32,1.32,0,0,1,1.33,1.32v5.42a1.32,1.32,0,0,1-1.33,1.32h-3.19l-8.42,17.47A1.34,1.34,0,0,1,128.59,119.31Zm-21.88-2.65h21.05l8.42-17.46a1.33,1.33,0,0,1,1.19-.75h2.7V95.68h-4.52l-9.46,16.25a1.3,1.3,0,0,1-1.15.66H108.86a1.32,1.32,0,0,1-1.16-.7L98.88,95.67H94.39v2.77h2.7a1.3,1.3,0,0,1,1.19.75Z"/><path class="cls-4" d="M113.85,161.91H100.94a1.31,1.31,0,0,1-1.32-1.32V144.65a12.27,12.27,0,0,1,10.95-12.2V118a1.33,1.33,0,0,1,2.65,0v15.7A1.32,1.32,0,0,1,111.9,135a9.62,9.62,0,0,0-9.62,9.62v14.62h10.26V144.85a1.32,1.32,0,0,1,1.32-1.33,8.65,8.65,0,0,0,8.65-8.64V118a1.32,1.32,0,0,1,2.64,0v16.88a11.32,11.32,0,0,1-10,11.22v14.5A1.34,1.34,0,0,1,113.85,161.91Z"/></g></g></svg>