<svg xmlns="http://www.w3.org/2000/svg" viewBox="0 0 36 35.85"><defs><style>.cls-1{fill:none;stroke:#a71916;stroke-miterlimit:10;}</style></defs><title>phone-icon</title><g id="Warstwa_2" data-name="Warstwa 2"><g id="desktop"><polygon class="cls-1" points="21.51 12.92 21.51 16.01 25.13 12.92 35.5 12.92 35.5 2.27 17.63 2.27 17.63 12.92 21.51 12.92"/><path class="cls-1" d="M9.08,13.68l-1-2,2.1-1.11A3.42,3.42,0,0,0,11.63,6h0L9.72,2.33h0A3.42,3.42,0,0,0,5.1.89h0C1.29,2.9.29,6.27.53,10.57a32.24,32.24,0,0,0,3.59,12.2"/><path class="cls-1" d="M8.1,11.68l7.06,14.39c.42-.14,2.45-1.44,2.45-1.44a3.41,3.41,0,0,1,4.61,1.44h0l1.91,3.62h0a3.42,3.42,0,0,1-1.43,4.62h0c-3.8,2-7.14.93-10.55-1.7a31.84,31.84,0,0,1-8-9.84"/></g></g></svg>