<svg xmlns="http://www.w3.org/2000/svg" viewBox="0 0 16 16"><defs><style>.cls-1,.cls-2{fill:#fff;}.cls-1{opacity:0;}.cls-3{fill:#080809;}.cls-4{fill:#e5251f;}.cls-5{fill:#fdfdfd;}</style></defs><title>icon_2</title><g id="Warstwa_2" data-name="Warstwa 2"><g id="desktop"><rect class="cls-1" width="16" height="16"/><path class="cls-2" d="M3.22,1.9,2.16,1.31,1.92,2.49l.4,2L.73,5.59.37,8l.25.58,1.3.3.38,0v.4l0,1.49.54,0,.51,2.66c.78,0,1.59.07,2.42.07a45.77,45.77,0,0,0,6.58-.45"/><polyline class="cls-2" points="12.99 14.77 11.63 14.58 11.19 14.36 10.47 14.01 9.72 14.23 8.66 13.48 13.18 8.44 14.99 11.33 14.99 14.27"/><path class="cls-3" d="M14.3,7.36v.12h0c0,.18,0,.36,0,.54s0,.17,0,.25a1.82,1.82,0,0,0,0,.33.12.12,0,0,0,0,.08,1.07,1.07,0,0,0-.05.47.7.7,0,0,1,0,.29h0l-.91,0c-.2,0-.4,0-.61,0a.11.11,0,0,1-.1-.05L12.24,9A1.37,1.37,0,0,0,12,8.77c0-.23,0-.47,0-.7s0-.22,0-.33,0-.12-.07-.14,0-.07,0-.08-.17.13-.18.19-.05,0-.07.1a3.87,3.87,0,0,0,0,.48c0,.26,0,.52,0,.78a.55.55,0,0,1,0,.28l-.17.1s0,0,0,.07a3.68,3.68,0,0,0,.3.39c0,.06.1.1.14.16l.31.38s0,.1.09.13.14.14.23.15.27,0,.41,0l.41,0,1.31,0,.77,0h.47s.07,0,.09,0,.07.06.1.1,0,0,0,0,0,.12-.05.18,0,.05-.08.05h-.31s-.07,0-.06.08a.62.62,0,0,1,0,.27h0c-.07,0-.12,0-.19,0a1.51,1.51,0,0,0-.3,0c-.14,0-.28,0-.42,0h-.33a1.69,1.69,0,0,0-.32,0s0,0-.05,0a0,0,0,0,0,0,0,.94.94,0,0,1-.41,0,.87.87,0,0,1-.23,0c-.08,0-.15,0-.23,0s-.15,0-.22,0,0,0-.05,0-.13-.12-.18-.19l0,0c0-.09-.05-.11-.1-.15l-.39-.4-.25-.25s0,0-.05,0a0,0,0,0,0,0,.06c0,.14,0,.27,0,.41s0,.23,0,.35c0,.4,0,.8,0,1.2,0,.24,0,.48,0,.72s0,.67,0,1c0,.18,0,.35,0,.53s0,.05-.06,0l-.39-.13a.09.09,0,0,1-.05-.09v-.78c0-.29,0-.58,0-.88,0-.55,0-1.11,0-1.67,0-.06,0-.08-.08-.08a.26.26,0,0,0-.21.08l-.22.19a.3.3,0,0,0-.12.3,1.61,1.61,0,0,1,0,.38,1.69,1.69,0,0,0,0,.32c0,.39,0,.78,0,1.17,0,.21,0,.41,0,.62s0,.15-.15.16l-.6.06h0s-.07,0-.07,0,0-.34,0-.5,0-.48,0-.72,0-.47,0-.7,0-.67,0-1V11c0-.06,0-.08-.08-.07l-.6,0c-.2,0-.2,0-.2.22v1c0,.4,0,.81,0,1.21,0,0,0,.08-.07.08l-1,0H7.05c-.22,0-.45,0-.68,0a4.87,4.87,0,0,0-.54,0c-.07,0-.06,0-.07-.08s0-.36,0-.55,0-.56,0-.84,0-.72,0-1.09c0,0,0-.06-.06-.06h-1l-.79,0H2.94s0,0,0-.06a4.69,4.69,0,0,1,0-.53,6.06,6.06,0,0,1,0-.74c0-.26,0-.51,0-.76s0-.34,0-.5c0-.46,0-.92,0-1.38l0-.76a.15.15,0,0,1,0-.09c.1,0,.2-.07.3-.09a5.47,5.47,0,0,0,.8-.19,1.88,1.88,0,0,1,.58-.13.17.17,0,0,0,.14-.1,2.61,2.61,0,0,1,.2-.3A3.24,3.24,0,0,1,5.31,5a6.07,6.07,0,0,0,.43-.57l.31-.44s.06-.06.11,0A3.7,3.7,0,0,0,6.64,4c.2,0,.41.07.62.11s.61.11.92.15c.13,0,.27,0,.4,0s.33.06.5.1.42.06.62.11.55.1.82.14a.15.15,0,0,1,.12.07,1,1,0,0,0,.09.18,2.12,2.12,0,0,1,.11.21c.06.13.15.23.21.35.17.29.31.59.47.88a1.06,1.06,0,0,1,.16.34.09.09,0,0,0,.08.06,1.26,1.26,0,0,0,.27,0c.17,0,.33.06.5,0h0c.16,0,.33,0,.48,0a3.29,3.29,0,0,0,.44,0L14,7l.11,0s.08.06.14,0,.15,0,.23,0,0,0,0,0-.08,0-.1.08,0,0,0,.06S14.3,7.29,14.3,7.36ZM7.26,6s0,0,0,0,0,.11.11.12l1,.13.92.11c.09,0,.1,0,.1-.09V5.12c0-.06,0-.08-.08-.09L9.17,5l-1-.15-.84-.13c-.06,0-.09,0-.09.07C7.26,5.21,7.24,5.62,7.26,6ZM7,9.36H7a.48.48,0,0,1,0-.12c0-.08,0-.1-.1-.1-.23,0-.46,0-.69,0L4.9,9.1c-.09,0-.1,0-.1.11l0,.66,0,.48s0,.07,0,.07l.5,0c.27,0,.55,0,.82,0l.77,0a0,0,0,0,0,0-.05c0-.16,0-.32,0-.48ZM6.06,6.87h0c0-.12,0-.24,0-.35s0-.08-.07-.08L4.9,6.31c-.07,0-.1,0-.1.08s0,.36,0,.54,0,.53,0,.79,0,.56,0,.84c0,.08,0,.1.1.1H5.2l.76,0s.09,0,.09-.06,0-.42,0-.63Zm2.3,2.34h-1c-.07,0-.09,0-.09.09s0,.35,0,.53,0,.35,0,.52,0,.11.11.11.46,0,.69,0l1.28,0c.08,0,.09,0,.09-.1,0-.36,0-.73,0-1.09,0-.07,0-.09-.09-.09Zm2,.07v0H9.74c-.08,0-.1,0-.1.12,0,.35.06.71.08,1.07,0,0,0,.07.07.07h.27l1,0c.17,0,.17,0,.17-.18v-1c0-.11,0-.11-.1-.11ZM9.4,7.45V6.87c0-.06,0-.09-.08-.08H9.1l-.5,0c-.06,0-.08,0-.07.07a1.28,1.28,0,0,1,0,.39c0,.28,0,.56,0,.85s0,.48,0,.72c0,0,0,.07.06.08l.76.05c.05,0,.08,0,.07-.07a1.14,1.14,0,0,1,0-.32C9.42,8.17,9.39,7.81,9.4,7.45ZM4.32,7.18h0V6.65a.08.08,0,0,0,0-.07s0,0-.06,0a.69.69,0,0,0-.13.11A.19.19,0,0,0,4,6.89c0,.25,0,.51,0,.76s0,.74,0,1.12,0,1,0,1.51c0,.16,0,.16.16.16s.19,0,.19-.18l0-1.14ZM3.81,7h0V6.7s0,0,0,0,0,0,0,0a1,1,0,0,0-.22.63c0,.52,0,1,0,1.57s0,1,0,1.43c0,.16,0,.16.16.16s.08,0,.08-.08a1.08,1.08,0,0,1,0-.18c0-.5,0-1,0-1.49ZM3.34,10V9.63c0-.3,0-.61,0-.91s0-.59,0-.88,0-.74,0-1.11a.22.22,0,0,0-.1-.22s0,0,0,0,0,0,0,.06,0,.23,0,.35,0,.42,0,.62,0,.29,0,.43,0,.42,0,.63,0,.34,0,.51c0,.44,0,.88,0,1.32,0,0,0,0,0,0h.1c.06,0,.08,0,.09-.09S3.35,10.09,3.34,10Zm2.53,3h0v.13c0,.06,0,.08.07.08h.22c.09,0,.11,0,.11-.11,0-.25,0-.49,0-.74s0-.67,0-1a.21.21,0,0,0-.08-.16A.16.16,0,0,0,6,11.12a.2.2,0,0,0-.11.19c0,.26,0,.53,0,.8S5.87,12.69,5.87,13Zm.92,0c0-.31,0-.63,0-.94s0-.44,0-.65a.41.41,0,0,0,0-.16.19.19,0,0,0-.18-.11.15.15,0,0,0-.14.15.76.76,0,0,0,0,.15c0,.39,0,.77,0,1.16a3.53,3.53,0,0,0,0,.46c0,.05,0,.13,0,.16a.54.54,0,0,0,.18,0C6.82,13.16,6.82,13.16,6.79,13Zm.14-.36h0v.5s0,.07.06.07h.26s.07,0,.07-.06v-.43c0-.35,0-.71,0-1.06v-.23c0-.13-.1-.24-.2-.23a.2.2,0,0,0-.16.24,1.33,1.33,0,0,1,0,.2C6.93,11.94,6.93,12.27,6.93,12.6Zm1.51-1h0v-.31a.21.21,0,0,0-.2-.2.17.17,0,0,0-.16.17v.89c0,.11,0,.22,0,.33v.56q0,.08.06.06h.24c.06,0,.09,0,.09-.08s0-.38,0-.56Zm-.52-.05h0v-.25a.21.21,0,0,0-.19-.2c-.09,0-.16.09-.16.21,0,.31,0,.63,0,.94s0,.54,0,.81c0,.05,0,.06.07.06h.26s.06,0,.06-.07ZM11.13,7C11,7,11,7,11,7.12s0,.46,0,.7,0,.71,0,1.07a.07.07,0,0,0,0,.08l.15.08s.05,0,.06,0a.91.91,0,0,1,0-.17c.05-.28.07-.57.11-.85s.07-.6.11-.9c0-.06,0-.08-.06-.08Zm.14-.39c.06,0,.09,0,.06-.07l-.42-.78c0-.08-.06-.09-.13,0-.29.22-.56.46-.85.68,0,0,0,0,0,0a.05.05,0,0,0,0,0l.25,0Zm-4.09.7c0-.11,0-.22,0-.33A.21.21,0,0,0,7,6.81.16.16,0,0,0,6.83,7c0,.24,0,.47,0,.7s0,.26,0,.39a3.09,3.09,0,0,0,0,.43s0,.08.06.07h.25c.06,0,.08,0,.08-.08a3,3,0,0,1,0-.31C7.2,7.89,7.17,7.61,7.18,7.33Zm1,1.3a.48.48,0,0,1,.12,0c.07,0,.09,0,.08-.1,0-.25,0-.51,0-.77s0-.41,0-.61A.17.17,0,0,0,8.19,7,.16.16,0,0,0,8,7.13c0,.19,0,.38,0,.56s0,.51,0,.77S8,8.64,8.13,8.63Zm-.36-.81V7.05a.18.18,0,0,0-.19-.16.16.16,0,0,0-.16.16c0,.25,0,.5,0,.74s0,.47,0,.71c0,.07,0,.1.09.09h.15c.15,0,.15,0,.14-.15S7.79,8,7.77,7.82ZM6.68,6.16s0,0,.05,0,0-.05,0-.07L6,5.33c-.08-.08-.09-.07-.15,0L5.45,6c0,.06,0,.08,0,.08l.28,0ZM6.27,7.57h0v.34c0,.18,0,.36,0,.54a.06.06,0,0,0,.06.06l.25,0s.06,0,0-.06V7.1c0-.09,0-.18,0-.26a.15.15,0,0,0-.17-.08.15.15,0,0,0-.11.14ZM7,5.06c0-.12,0-.24,0-.36s0,0-.07-.06l-.51-.11c-.06,0-.09,0-.11.06s-.06.18-.1.27,0,0,0,.08l.71.7s0,0,.06,0,0,0,0-.06A3.25,3.25,0,0,1,7,5.06Zm3,.05h-.2c-.06,0-.08,0-.07.08,0,.26,0,.52,0,.78,0,0,0,.06,0,.08s.06,0,.08,0l.78-.62s0,0,0-.07,0-.12,0-.18,0-.07-.09-.06S10.14,5.12,10,5.11ZM10.25,9h.47c.07,0,.09,0,.09-.09a1.37,1.37,0,0,1,0-.19c0-.26,0-.52,0-.77s0-.59,0-.88c0,0,0-.06-.05-.07s0,0,0,.07,0,.31,0,.47v.7c0,.11,0,.22,0,.33s0,.17-.15.17l-.71,0c-.15,0-.15,0-.14.14v0c0,.09,0,.12.1.12Zm2.93-.53c0-.29,0-.58,0-.88,0-.1-.08-.19-.15-.19s-.12.08-.12.19c0,.37,0,.74,0,1.11s0,.27.23.26h0c.05,0,.07,0,.07-.06S13.18,8.58,13.18,8.44Zm.41-.71V7.64a.27.27,0,0,0,0-.09.15.15,0,0,0-.14-.14.13.13,0,0,0-.12.14c0,.23,0,.45,0,.68s0,.42,0,.63,0,.11.11.1a.48.48,0,0,1,.12,0c.06,0,.08,0,.07-.08C13.59,8.49,13.62,8.1,13.59,7.73ZM14,8h0V7.59a.12.12,0,0,0,0-.11s-.1-.06-.15,0a.16.16,0,0,0-.08.15c0,.06,0,.13,0,.2s0,.34,0,.5a4.17,4.17,0,0,0,0,.5c0,.06-.05.14,0,.18s.13,0,.2,0h0s0,0,0-.05Zm-4.12.18h0v.1c0,.16,0,.16.14.15h.05c.12,0,.12,0,.12-.12,0-.34,0-.67,0-1A.15.15,0,0,0,10,7.14c-.09,0-.12,0-.12.14a2.29,2.29,0,0,0,0,.37C9.88,7.83,9.87,8,9.87,8.18Zm.73-.64a.75.75,0,0,0,0-.21.12.12,0,0,0-.13-.12c-.07,0-.11,0-.11.13s0,.38,0,.57,0,.26,0,.4,0,.15.18.15.11,0,.1-.1C10.59,8.09,10.6,7.81,10.6,7.54Zm-.74,4.84c0,.12,0,.24,0,.36s0,.06.06.06.07,0,.06-.06c0-.32,0-.63,0-.94,0-.05,0-.07-.07-.07s-.06,0-.06.07Zm.26.26v.09s0,.06.07.06,0,0,0-.06a1.62,1.62,0,0,1,0-.22c0-.24,0-.47,0-.71,0-.06,0-.05-.08-.05s-.06,0-.05.06C10.13,12.08,10.09,12.36,10.12,12.64Zm-.32-.57h0v-.25a.05.05,0,0,0-.06-.06s-.05,0-.05.06c0,.31,0,.62,0,.93,0,0,0,.07.05.07s.06,0,.06-.07C9.79,12.53,9.8,12.3,9.8,12.07Z"/><path class="cls-4" d="M14.3,7.36c0-.07,0-.1.1-.1s.07-.08.06-.14,0,0,0,0-.16-.06-.23,0-.1,0-.14,0L14,7l-.49-.06a3.29,3.29,0,0,1-.44,0c-.15,0-.32,0-.48,0h0c-.17,0-.33-.05-.5,0a1.26,1.26,0,0,1-.27,0,.09.09,0,0,1-.08-.06,1.06,1.06,0,0,0-.16-.34c-.16-.29-.3-.59-.47-.88-.06-.12-.15-.22-.21-.35a2.12,2.12,0,0,0-.11-.21,1,1,0,0,1-.09-.18.15.15,0,0,0-.12-.07c-.27,0-.54-.08-.82-.14s-.41-.07-.62-.11-.34-.05-.5-.1-.27,0-.4,0c-.31,0-.61-.1-.92-.15S6.84,4,6.64,4a3.7,3.7,0,0,1-.48-.09s-.08,0-.11,0l-.31.44A6.07,6.07,0,0,1,5.31,5a3.24,3.24,0,0,0-.24.31,2.61,2.61,0,0,0-.2.3.17.17,0,0,1-.14.1,1.88,1.88,0,0,0-.58.13,5.47,5.47,0,0,1-.8.19c-.1,0-.2.06-.3.09S2.92,6,3,5.87s0,0,0,0a.18.18,0,0,1-.09-.14.1.1,0,0,0,0-.07.12.12,0,0,1-.06-.1.17.17,0,0,0-.07-.13.17.17,0,0,1,0-.24s0-.09,0-.12a.16.16,0,0,1,0-.17l0-.27c0-.06.05-.06.09-.06h.4c.08,0,.11,0,.11-.1,0-.52,0-1.05,0-1.57,0-.33,0-.66,0-1,0-.11,0-.11.11-.09s.53.1.79.13.45.09.68.13l.65.11c.3.07.6.1.89.17a.54.54,0,0,0,.41,0l.5-.25a.19.19,0,0,1,.19,0,2.26,2.26,0,0,0,.42.26s0,0,.08.06a4.6,4.6,0,0,0,.6.37.9.9,0,0,0,.28,0l.46.07A.32.32,0,0,1,9.46,3l1.36,1.12.78.63a1.33,1.33,0,0,1,.33.48,3.47,3.47,0,0,1,.18.33s.05.06.1,0l.31-.07a.13.13,0,0,1,.11,0l.68.47c.38.26.75.53,1.13.78.08.06.15.1.14.2a2.61,2.61,0,0,1,0,.28s0,0,0,0A1,1,0,0,1,14.3,7.36Z"/><path class="cls-3" d="M15,11.85c0,.38,0,.76,0,1.14s0,1,0,1.54c0,.06,0,.08-.08.08-.24,0-.48.05-.72.05l-.54.05c-.24,0-.49,0-.73.06-.05,0-.06,0-.07-.07,0-.39,0-.79,0-1.18,0-.22,0-.44,0-.66s0-.61,0-.92c0-.1,0-.2,0-.3s0-.11.13-.12c.28,0,.57,0,.86,0s.46,0,.7,0,.25,0,.37,0,.09,0,.08.07v.32Z"/><path class="cls-4" d="M11.54,9.35a.55.55,0,0,0,0-.28c0-.26,0-.52,0-.78a3.87,3.87,0,0,1,0-.48s0-.08.07-.1a.59.59,0,0,0,.19-.11c.07,0,.07.09.07.14s0,.22,0,.33,0,.47,0,.7a.54.54,0,0,0,.17.22c.14.12.25.26.38.38a.23.23,0,0,0,.17.08c.33,0,.66,0,1,0h.52s.08,0,0-.06a.7.7,0,0,0,0-.29,1.07,1.07,0,0,1,.05-.47,5,5,0,0,1,.37.42,1.58,1.58,0,0,0,.26.31s.05.09.08.12l.82,1s.05,0,0,.08-.06,0-.09,0h-.47l-.77,0-1.31,0-.41,0c-.14,0-.27,0-.41,0s-.15-.1-.23-.15-.06-.09-.09-.13l-.31-.38c0-.06-.1-.1-.14-.16a3.68,3.68,0,0,1-.3-.39l.18-.11S11.58,9.37,11.54,9.35Z"/><path class="cls-3" d="M1.91,3.33A.48.48,0,0,0,2,3.07S2,3,2,3a.2.2,0,0,1,0-.18,2,2,0,0,0,0-.35c0-.07,0-.12,0-.19s0-.13,0-.2A.14.14,0,0,1,2,2s0-.07,0-.09a.37.37,0,0,1-.13-.15.17.17,0,0,0-.1-.1s-.09,0,0-.07.19-.24.31-.33a.1.1,0,0,1,.15.06.34.34,0,0,0,0,.17c0,.05,0,.13,0,.15s0,.15,0,.23a1.68,1.68,0,0,1-.07.24.59.59,0,0,0,0,.13.13.13,0,0,1,0,.11.14.14,0,0,0,0,.11c0,.15.08.19.19.22s.06,0,0,.07a.49.49,0,0,0,0,.27.14.14,0,0,1,0,.09.18.18,0,0,0,0,.15,1,1,0,0,1,.07.41,1.5,1.5,0,0,0,0,.2,2,2,0,0,0,0,.35c0,.08,0,.16,0,.24v.44c0,.12,0,.24,0,.35s0,.22,0,.33,0,.28,0,.41,0,.42,0,.62,0,.42,0,.62,0,.48,0,.71a.55.55,0,0,0,0,.18s0,.07,0,.1,0,.14,0,.22a.19.19,0,0,1,0,.13.78.78,0,0,0,0,.34c0,.13,0,.25,0,.4C2.21,9.2,2.09,9.13,2,9s-.1-.08-.12-.14-.06-.08,0-.13,0-.05,0-.09a2.19,2.19,0,0,1,0-.51A.26.26,0,0,0,1.9,8s0-.08,0-.13a.7.7,0,0,0,0-.25,1.5,1.5,0,0,1,0-.3c0-.16,0-.31,0-.46v0c0-.09,0-.18,0-.26s0,0,0-.06a.07.07,0,0,1,0-.07.59.59,0,0,0,0-.32,4.1,4.1,0,0,1,0-.61.36.36,0,0,0,0-.1s0-.08,0-.11,0-.06,0-.08a.31.31,0,0,1,0-.19c0-.08,0-.11-.11-.07l-.44.2a.67.67,0,0,1-.15.06s-.08,0-.11.09a1.4,1.4,0,0,0-.1.35,2.81,2.81,0,0,1-.08.31,4,4,0,0,0-.13.46,1.53,1.53,0,0,1-.11.42.63.63,0,0,0-.06.27.31.31,0,0,1-.05.17c0,.08,0,.17-.08.23s0,.07,0,.11a2.47,2.47,0,0,0-.1.29v0S.39,8,.37,8s0,0,0-.06,0-.17-.07-.22a0,0,0,0,0-.05,0c-.08,0-.06,0,0-.08a.09.09,0,0,1,0,0c0-.08.09-.13.08-.21a.46.46,0,0,1,0-.2.37.37,0,0,0,0-.2c0-.18.1-.33.13-.5L.62,6a2.72,2.72,0,0,0,.11-.38,1.87,1.87,0,0,1,.08-.34A1.43,1.43,0,0,1,.85,5a.79.79,0,0,0,.06-.22c0-.09,0-.21.13-.26a.42.42,0,0,0,.18-.14s.08-.1.14-.11a.37.37,0,0,0,.17-.13s0,0,0,0a1.73,1.73,0,0,0,.31-.22A.25.25,0,0,0,2,3.73c0-.11,0-.23,0-.34S2,3.33,1.91,3.33Z"/><path class="cls-4" d="M1.91,3.33s.05,0,.05.06,0,.23,0,.34a.25.25,0,0,1-.1.17,1.73,1.73,0,0,1-.31.22s0,0,0,0a.37.37,0,0,1-.17.13c-.06,0-.1.07-.14.11A.42.42,0,0,1,1,4.55c-.11,0-.11.17-.13.26A.79.79,0,0,1,.85,5a1.43,1.43,0,0,0,0,.22,1.87,1.87,0,0,0-.08.34A2.72,2.72,0,0,1,.62,6L.5,6.44c0,.17-.11.32-.13.5a.37.37,0,0,1,0,.2.46.46,0,0,0,0,.2c0,.08-.07.13-.08.21a.09.09,0,0,0,0,0c-.07.06-.12,0-.16,0s0-.06,0-.09A1.58,1.58,0,0,0,.15,7.1L.3,6.49c0-.21.11-.41.15-.62s.07-.27.1-.4S.63,5.15.67,5s.08-.38.14-.57A.63.63,0,0,1,1,4.21c.29-.29.59-.56.87-.86C1.88,3.34,1.89,3.32,1.91,3.33Z"/><polygon class="cls-4" points="14.3 7.48 14.3 7.48 14.31 7.47 14.3 7.48"/><path class="cls-5" d="M7.26,6c0-.42,0-.83,0-1.25,0-.07,0-.08.09-.07l.84.13,1,.15.19,0c.05,0,.08,0,.08.09V6.35c0,.07,0,.11-.1.09l-.92-.11-1-.13c-.09,0-.13,0-.11-.12S7.26,6.05,7.26,6Z"/><path class="cls-5" d="M7,9.36V10c0,.16,0,.32,0,.48a0,0,0,0,1,0,.05l-.77,0c-.27,0-.55,0-.82,0l-.5,0s0,0,0-.07l0-.48,0-.66c0-.08,0-.11.1-.11l1.28,0c.23,0,.46,0,.69,0,.08,0,.11,0,.1.1a.48.48,0,0,0,0,.12Z"/><path class="cls-5" d="M6.06,6.87V8c0,.21,0,.42,0,.63s0,.06-.09.06l-.76,0H4.91c-.07,0-.1,0-.1-.1,0-.28,0-.56,0-.84s0-.53,0-.79,0-.36,0-.54,0-.09.1-.08L6,6.44s.07,0,.07.08,0,.23,0,.35Z"/><path class="cls-5" d="M8.36,9.21h1c.07,0,.09,0,.09.09,0,.36,0,.73,0,1.09,0,.07,0,.1-.09.1l-1.28,0c-.23,0-.46,0-.69,0s-.12,0-.11-.11,0-.35,0-.52,0-.36,0-.53,0-.09.09-.09Z"/><path class="cls-5" d="M10.33,9.28h.76c.11,0,.1,0,.1.11v1c0,.17,0,.18-.17.18l-1,0H9.79s-.07,0-.07-.07c0-.36-.05-.72-.08-1.07,0-.08,0-.12.1-.12h.59Z"/><path class="cls-5" d="M9.4,7.45c0,.36,0,.72,0,1.08a1.14,1.14,0,0,0,0,.32c0,.05,0,.07-.07.07l-.76-.05c-.06,0-.06,0-.06-.08,0-.24,0-.48,0-.72s0-.57,0-.85a1.28,1.28,0,0,0,0-.39s0-.08.07-.07l.5,0h.22c.07,0,.08,0,.08.08Z"/><path class="cls-5" d="M4.32,7.18V9.12l0,1.14c0,.19,0,.19-.19.18s-.16,0-.16-.16c0-.51,0-1,0-1.51S4,8,4,7.65s0-.51,0-.76a.19.19,0,0,1,.08-.17.69.69,0,0,1,.13-.11s0,0,.06,0a.08.08,0,0,1,0,.07v.53Z"/><path class="cls-5" d="M3.81,7V8.71c0,.5,0,1,0,1.49a1.08,1.08,0,0,0,0,.18c0,.06,0,.07-.08.08s-.15,0-.16-.16c0-.48,0-1,0-1.43s0-1,0-1.57a1,1,0,0,1,.22-.63s0,0,0,0,0,0,0,0V7Z"/><path class="cls-5" d="M3.34,10c0,.14,0,.28,0,.41s0,.09-.09.09h-.1s-.05,0,0,0c0-.44,0-.88,0-1.32,0-.17,0-.34,0-.51s0-.42,0-.63,0-.29,0-.43,0-.41,0-.62,0-.23,0-.35,0,0,0-.06,0,0,0,0a.22.22,0,0,1,.1.22c0,.37,0,.74,0,1.11s0,.59,0,.88,0,.61,0,.91Z"/><path class="cls-5" d="M5.87,13c0-.29,0-.58,0-.87s0-.54,0-.8A.2.2,0,0,1,6,11.12a.16.16,0,0,1,.18.05.21.21,0,0,1,.08.16c0,.34,0,.67,0,1s0,.49,0,.74c0,.08,0,.12-.11.11H5.94c-.06,0-.08,0-.07-.08V13Z"/><path class="cls-5" d="M6.79,13c0,.2,0,.2-.17.22a.54.54,0,0,1-.18,0c-.06,0,0-.11,0-.16a3.53,3.53,0,0,1,0-.46c0-.39,0-.77,0-1.16a.76.76,0,0,1,0-.15.15.15,0,0,1,.14-.15.19.19,0,0,1,.18.11.41.41,0,0,1,0,.16c0,.21,0,.43,0,.65S6.79,12.65,6.79,13Z"/><path class="cls-5" d="M6.93,12.6c0-.33,0-.66,0-1a1.33,1.33,0,0,0,0-.2.2.2,0,0,1,.16-.24c.1,0,.2.1.2.23v.23c0,.35,0,.71,0,1.06v.43s0,.06-.07.06H7s-.06,0-.06-.07v-.5Z"/><path class="cls-5" d="M8.44,11.64v.86c0,.18,0,.37,0,.56s0,.08-.09.08H8.12s-.06,0-.06-.06v-.56c0-.11,0-.22,0-.33V11.3a.17.17,0,0,1,.16-.17.21.21,0,0,1,.2.2v.31Z"/><path class="cls-5" d="M7.92,11.59v1.49s0,.07-.06.07H7.6s-.07,0-.07-.06c0-.27,0-.54,0-.81s0-.63,0-.94c0-.12.07-.21.16-.21a.21.21,0,0,1,.19.2v.25Z"/><path class="cls-5" d="M11.13,7h.3c.05,0,.07,0,.06.08,0,.3-.07.6-.11.9s-.06.57-.11.85a.91.91,0,0,0,0,.17s0,.06-.06,0L11.05,9a.07.07,0,0,1,0-.08c0-.36,0-.72,0-1.07s0-.47,0-.7S11,7,11.13,7Z"/><path class="cls-5" d="M11.27,6.63l-1.08-.11-.25,0a.05.05,0,0,1,0,0s0,0,0,0c.29-.22.56-.46.85-.68.07-.06.09,0,.13,0l.42.78C11.36,6.63,11.33,6.64,11.27,6.63Z"/><path class="cls-5" d="M7.18,7.33c0,.28,0,.56,0,.84a3,3,0,0,0,0,.31s0,.08-.08.08H6.87s-.06,0-.06-.07a3.09,3.09,0,0,1,0-.43c0-.13,0-.26,0-.39s0-.46,0-.7A.16.16,0,0,1,7,6.81.21.21,0,0,1,7.18,7C7.17,7.11,7.18,7.22,7.18,7.33Z"/><path class="cls-5" d="M8.13,8.63c-.18,0-.19,0-.18-.17S8,8,8,7.69s0-.37,0-.56A.16.16,0,0,1,8.19,7a.17.17,0,0,1,.12.18c0,.2,0,.4,0,.61s0,.52,0,.77c0,.07,0,.11-.08.1A.48.48,0,0,0,8.13,8.63Z"/><path class="cls-5" d="M7.77,7.82c0,.18,0,.4,0,.61s0,.15-.14.15H7.49c-.07,0-.08,0-.09-.09,0-.24,0-.47,0-.71s0-.49,0-.74a.16.16,0,0,1,.16-.16.18.18,0,0,1,.19.16Z"/><path class="cls-5" d="M6.68,6.16l-.92,0-.28,0c-.05,0-.07,0,0-.08l.39-.65c.06-.09.07-.1.15,0l.71.75s0,0,0,.07S6.7,6.16,6.68,6.16Z"/><path class="cls-5" d="M6.27,7.57V6.9a.15.15,0,0,1,.11-.14.15.15,0,0,1,.17.08c.06.08,0,.17,0,.26V8.43s0,.06,0,.06l-.25,0a.06.06,0,0,1-.06-.06c0-.18,0-.36,0-.54V7.57Z"/><path class="cls-5" d="M7,5.06A3.25,3.25,0,0,0,7,5.6s0,.05,0,.06,0,0-.06,0l-.71-.7s0-.05,0-.08.07-.18.1-.27,0-.07.11-.06l.51.11s.07,0,.07.06S7,4.94,7,5.06Z"/><path class="cls-5" d="M10,5.11c.16,0,.31,0,.46,0s.08,0,.09.06,0,.12,0,.18,0,0,0,.07L9.76,6s0,.06-.08,0,0-.06,0-.08c0-.26,0-.52,0-.78,0,0,0-.08.07-.08Z"/><path class="cls-5" d="M10.25,9H9.81c-.08,0-.13,0-.1-.12v0c0-.15,0-.15.14-.14l.71,0c.17,0,.16,0,.15-.17s0-.22,0-.33V7.5c0-.16,0-.31,0-.47s0-.07,0-.07.05,0,.05.07c0,.29,0,.59,0,.88s0,.51,0,.77a1.37,1.37,0,0,0,0,.19c0,.06,0,.09-.09.09h-.47Z"/><path class="cls-5" d="M13.18,8.44c0,.14,0,.29,0,.43s0,.06-.07.06h0c-.23,0-.23,0-.23-.26s0-.74,0-1.11c0-.11,0-.19.12-.19s.14.09.15.19C13.16,7.86,13.18,8.15,13.18,8.44Z"/><path class="cls-5" d="M13.59,7.73c0,.37,0,.76,0,1.15,0,.06,0,.08-.07.08a.48.48,0,0,0-.12,0c-.1,0-.11,0-.11-.1s0-.42,0-.63,0-.45,0-.68a.13.13,0,0,1,.12-.14.15.15,0,0,1,.14.14.27.27,0,0,1,0,.09Z"/><path class="cls-5" d="M14,8v.93S14,9,14,9h0c-.07,0-.14,0-.2,0s0-.12,0-.18a4.17,4.17,0,0,1,0-.5c0-.16,0-.33,0-.5s0-.14,0-.2a.16.16,0,0,1,.08-.15c.05,0,.1,0,.15,0a.12.12,0,0,1,0,.11V8Z"/><path class="cls-5" d="M9.87,8.18c0-.18,0-.35,0-.53a2.29,2.29,0,0,1,0-.37c0-.1,0-.14.12-.14a.15.15,0,0,1,.15.15c0,.34,0,.67,0,1,0,.12,0,.12-.12.12H10c-.15,0-.15,0-.14-.15v-.1Z"/><path class="cls-5" d="M10.6,7.54c0,.27,0,.55,0,.82,0,.1,0,.1-.1.1s-.15,0-.18-.15,0-.27,0-.4,0-.38,0-.57,0-.13.11-.13a.12.12,0,0,1,.13.12A.75.75,0,0,1,10.6,7.54Z"/><path class="cls-5" d="M14.26,9.44c0,.05,0,.06,0,.06H13.7c-.33,0-.66-.05-1,0a.23.23,0,0,1-.17-.08c-.13-.12-.24-.26-.38-.38A.54.54,0,0,1,12,8.77a1.37,1.37,0,0,1,.25.23l.35.34a.11.11,0,0,0,.1.05c.21,0,.41,0,.61,0l.91,0h0Z"/><path class="cls-5" d="M9.86,12.38V11.8s0-.07.06-.07.07,0,.07.07c0,.31,0,.62,0,.94q0,.06-.06.06s-.07,0-.06-.06S9.86,12.5,9.86,12.38Z"/><path class="cls-5" d="M10.12,12.64c0-.28,0-.56,0-.83,0,0,0-.06.05-.06s.08,0,.08.05c0,.24,0,.47,0,.71a1.62,1.62,0,0,0,0,.22s0,.06,0,.06-.07,0-.07-.06Z"/><path class="cls-5" d="M9.8,12.07c0,.23,0,.46,0,.68,0,.05,0,.07-.06.07s-.05,0-.05-.07c0-.31,0-.62,0-.93,0,0,0-.06.05-.06a.05.05,0,0,1,.06.06v.25Z"/><path class="cls-5" d="M11.54,9.35s0,0,0,.06l-.18.11s0,0,0-.07Z"/><path class="cls-5" d="M11.9,7.6a.59.59,0,0,1-.19.11c0-.06.13-.2.18-.19S11.92,7.57,11.9,7.6Z"/><path class="cls-5" d="M14.46,7.12c0,.06,0,.1-.06.14s-.06,0,0-.06S14.4,7.12,14.46,7.12Z"/><path class="cls-4" d="M14.21,9.44Z"/></g></g></svg>