<svg xmlns="http://www.w3.org/2000/svg" viewBox="0 0 214.82 58.96"><defs><style>.cls-1{fill:#1d1d1b;}.cls-2{fill:#080809;}.cls-3{fill:#e5251f;}.cls-4{fill:#fdfdfd;}</style></defs><title>logo_1</title><g id="Warstwa_2" data-name="Warstwa 2"><g id="desktop"><path class="cls-1" d="M78,7H90.74c6.24,0,10.4,3.48,10.4,8.84,0,6.2-4.76,9-10.56,9H85.94v9.68H78Zm8,12.2h3.32c2.28,0,3.88-1,3.88-3.24s-1.64-3.28-3.88-3.28H85.94Z"/><path class="cls-1" d="M125.26,24c0,6.56-4,11-11.24,11-7.44,0-11.12-4.88-11.12-11,0-6.32,3.84-11,11.36-11C121.18,13.06,125.26,17.66,125.26,24Zm-14.4,0c0,4,1.16,5.76,3.28,5.76s3.16-1.8,3.16-5.68c0-4.32-1.08-5.8-3.2-5.8C112.14,18.34,110.86,19.74,110.86,24.06Z"/><path class="cls-1" d="M128.74,34.54v-29h7.8v29Z"/><path class="cls-1" d="M141.34,7h13.72c6.64,0,9.56,3.32,9.56,7.16a6.09,6.09,0,0,1-3.76,6,6.48,6.48,0,0,1,4.52,6.24c0,4.52-3.36,8.2-10.24,8.2h-13.8ZM153.7,17.62c2.2,0,3.12-1.16,3.12-2.64,0-1.72-1.24-2.56-3.2-2.56h-4.44v5.2ZM149.18,29.1h4.12c2.68,0,3.8-1.12,3.8-3.12,0-1.72-1.08-3-3.64-3h-4.28Z"/><path class="cls-1" d="M189.18,27.86c0,1.84,0,4.68,0,6.68h-7.64c-.08-.52-.12-1.64-.16-2.2-1.36,2-3.16,2.72-5.8,2.72-4.48,0-6.88-2.72-6.88-7.72V13.58h7.8V26.06c0,1.92.52,3.24,2.28,3.24s2.6-1,2.6-4.12V13.58h7.76Z"/><path class="cls-1" d="M214.78,5.58V28.22c0,2.08,0,4.52,0,6.32h-7.56a19.34,19.34,0,0,1-.24-2c-1,1.52-2.72,2.52-5.72,2.52-5.52,0-8.48-4.72-8.48-10.88,0-6.36,3.44-11.12,9.32-11.12,2.48,0,4.28.76,4.84,1.76V5.58Zm-10.72,24c3,0,3.24-2.68,3.24-5.56,0-3.52-.32-5.52-3.12-5.52-2.2,0-3.36,1.76-3.36,5.48S201.9,29.58,204.06,29.58Z"/><path class="cls-1" d="M92,45.08a7.82,7.82,0,0,1,4.4,1,3.52,3.52,0,0,1,1.47,3.14,3.57,3.57,0,0,1-1.46,3.16,8,8,0,0,1-4.41,1,8,8,0,0,1-4.41-1,3.56,3.56,0,0,1-1.45-3.16,3.51,3.51,0,0,1,1.46-3.14A7.82,7.82,0,0,1,92,45.08Zm0,6.2a14.26,14.26,0,0,0,1.59-.07,3,3,0,0,0,1-.31,1.31,1.31,0,0,0,.58-.63,3.15,3.15,0,0,0,0-2.1,1.25,1.25,0,0,0-.58-.62,2.84,2.84,0,0,0-1-.3,15.74,15.74,0,0,0-3.17,0,2.84,2.84,0,0,0-1,.3,1.25,1.25,0,0,0-.58.62,3.15,3.15,0,0,0,0,2.1,1.31,1.31,0,0,0,.58.63,3,3,0,0,0,1,.31A14.18,14.18,0,0,0,92,51.28Z"/><path class="cls-1" d="M106.53,48.42a3.91,3.91,0,0,1,2.25.54,1.9,1.9,0,0,1,.76,1.65,3,3,0,0,1-.19,1.11,2,2,0,0,1-.61.82,2.89,2.89,0,0,1-1.07.52,6,6,0,0,1-1.57.18H98.62l1.6-2.06h6.07a1.21,1.21,0,0,0,.65-.14.61.61,0,0,0,0-.9,1.32,1.32,0,0,0-.65-.13h-4.37a4.45,4.45,0,0,1-1.34-.17,2.66,2.66,0,0,1-.94-.46,2,2,0,0,1-.55-.73,2.39,2.39,0,0,1-.18-.94,2.63,2.63,0,0,1,.2-1,1.93,1.93,0,0,1,.61-.78,3,3,0,0,1,1.07-.51,6,6,0,0,1,1.57-.18h7l-1.6,2.09h-5.57a1.35,1.35,0,0,0-.64.12.45.45,0,0,0-.21.43.47.47,0,0,0,.21.44,1.33,1.33,0,0,0,.64.13Z"/><path class="cls-1" d="M120.78,53.24H117l-2.42-2.11-1-.84c-.22-.2-.4-.37-.53-.51,0,.19,0,.38,0,.57s0,.39,0,.59v2.3h-2.49v-8h2.49v1.86c0,.25,0,.49,0,.73s0,.47,0,.68l.58-.54c.23-.21.52-.47.89-.77l2.32-2h3.6l-3.07,2.31-.71.52c-.2.16-.38.29-.54.4l-.44.3-.39.25.84.6c.33.24.75.57,1.27,1Z"/><path class="cls-1" d="M125,53.24l1.5-2.06h2.76c.26,0,.49,0,.68,0-.11-.14-.24-.33-.39-.55l-.43-.61-1.43-2.13-3.77,5.33H121L126.11,46a2.7,2.7,0,0,1,.64-.62,1.59,1.59,0,0,1,1-.28,1.68,1.68,0,0,1,.95.26,2.43,2.43,0,0,1,.64.64l5,7.26Z"/><path class="cls-1" d="M146.6,53.24h-3.32l-1.79-2.12h-3.82v2.12h-2.48v-4.1h7a1.81,1.81,0,0,0,1-.24.73.73,0,0,0,.4-.66.79.79,0,0,0-.36-.71,1.91,1.91,0,0,0-1-.23h-7l1.62-2.09H142a7.71,7.71,0,0,1,1.41.13,4.16,4.16,0,0,1,1.34.45,2.86,2.86,0,0,1,1,.87,2.41,2.41,0,0,1,.39,1.42A2.64,2.64,0,0,1,146,49a2.42,2.42,0,0,1-1.07,1.32,2.59,2.59,0,0,1-.88.33l.45.4.67.66Z"/><path class="cls-1" d="M157.63,48.2l.46.82.35.63.26.51c.08.15.15.3.22.44l.21-.44.27-.5c.1-.19.21-.4.34-.63s.29-.51.47-.82l1.28-2.28a2.06,2.06,0,0,1,.55-.62,1.5,1.5,0,0,1,1.66,0,1.48,1.48,0,0,1,.55.83l2,7.06h-2.47l-.76-2.8c-.13-.45-.24-.85-.32-1.2s-.17-.68-.23-1l-.46.93-.66,1.29-1.08,2A2.5,2.5,0,0,1,160,53a2,2,0,0,1-.33.27,1.23,1.23,0,0,1-.37.12,2.58,2.58,0,0,1-.42,0,2.77,2.77,0,0,1-.42,0,1.27,1.27,0,0,1-.36-.12,2,2,0,0,1-.33-.27,2.5,2.5,0,0,1-.31-.48l-1.08-2c-.15-.27-.28-.51-.39-.73l-.3-.58a4.21,4.21,0,0,1-.24-.47l-.2-.42c-.07.32-.14.65-.23,1s-.19.75-.31,1.2l-.76,2.8h-2.43l2.07-7.06a1.54,1.54,0,0,1,.56-.83,1.43,1.43,0,0,1,.85-.27,1.41,1.41,0,0,1,.81.23,1.72,1.72,0,0,1,.54.62Z"/><path class="cls-1" d="M170.59,53.24l1.5-2.06h2.76c.26,0,.49,0,.68,0-.11-.14-.24-.33-.39-.55l-.43-.61-1.44-2.13-3.76,5.33h-2.94L171.71,46a2.7,2.7,0,0,1,.64-.62,1.59,1.59,0,0,1,1-.28,1.63,1.63,0,0,1,.94.26,2.33,2.33,0,0,1,.65.64l5,7.26Z"/><path class="cls-1" d="M189.25,53.24h-7.61a1.33,1.33,0,0,1-.81-.26.87.87,0,0,1-.34-.75,1,1,0,0,1,.14-.53,1.58,1.58,0,0,1,.4-.46L184,48.93l.87-.68.62-.48.44-.31a2.88,2.88,0,0,0,.28-.21l-.39,0h-5.58l1.58-2.09h7.41a1.33,1.33,0,0,1,.81.26.9.9,0,0,1,.34.75,1,1,0,0,1-.15.53,1.3,1.3,0,0,1-.39.45l-3,2.36-.85.67-.62.47-.42.32-.29.2h.48l.79,0h4.84Z"/><path class="cls-1" d="M202,49.74q0,3.63-5,3.63a11.23,11.23,0,0,1-2.49-.23,5.08,5.08,0,0,1-1.73-.68,2.74,2.74,0,0,1-1-1.13,3.79,3.79,0,0,1-.32-1.59V45.21H194v4.53a2,2,0,0,0,.12.74,1,1,0,0,0,.45.49,2.67,2.67,0,0,0,.93.26,12.91,12.91,0,0,0,1.56.08,6.67,6.67,0,0,0,1.2-.09A1.88,1.88,0,0,0,199,51a1.08,1.08,0,0,0,.41-.49,1.75,1.75,0,0,0,.13-.72V45.21H202Z"/><path class="cls-1" d="M214.82,53.24h-3.33l-1.78-2.12h-3.82v2.12h-2.48v-4.1h7a1.84,1.84,0,0,0,1-.24.73.73,0,0,0,.4-.66.79.79,0,0,0-.36-.71,1.91,1.91,0,0,0-1-.23h-7L205,45.21h5.16a7.79,7.79,0,0,1,1.41.13,4.1,4.1,0,0,1,1.33.45,2.86,2.86,0,0,1,1,.87,2.41,2.41,0,0,1,.39,1.42,2.63,2.63,0,0,1-.14.89,2.48,2.48,0,0,1-.41.75,2.27,2.27,0,0,1-.66.57,2.56,2.56,0,0,1-.89.33c.14.11.29.24.46.4l.67.66Z"/><path class="cls-2" d="M62.3,26.71v.5h0c0,.79,0,1.58,0,2.37,0,.37,0,.73,0,1.1s0,.93,0,1.39a.52.52,0,0,0,.11.36,4.69,4.69,0,0,0-.21,2.07,2.82,2.82,0,0,1-.06,1.26h-.2c-1.32,0-2.64,0-4-.14-.89-.06-1.78,0-2.66-.07a.63.63,0,0,1-.47-.2c-.5-.52-1-1-1.51-1.51a6.69,6.69,0,0,0-1.08-1c-.11-1,0-2.06-.11-3.08,0-.47,0-1,0-1.44,0-.22,0-.5-.3-.6.08-.14.18-.3-.06-.34s-.74.57-.75.84c-.2.07-.26.21-.32.41a14.72,14.72,0,0,0-.14,2.1c-.15,1.12,0,2.27-.12,3.4a2.71,2.71,0,0,1-.2,1.22l-.7.42c-.13.08-.23.18-.09.33a16.32,16.32,0,0,0,1.31,1.67,7.41,7.41,0,0,0,.65.72c.45.54.91,1.07,1.32,1.64.14.19.19.46.41.59s.58.61,1,.64c.59.05,1.18-.06,1.78-.06s1.18-.05,1.78-.06c1.9,0,3.8-.07,5.7-.14,1.12,0,2.23-.1,3.35-.13.68,0,1.37,0,2,0,.14,0,.29,0,.39-.11.25,0,.32.26.44.44s.07.1,0,.13c-.36.16-.2.5-.25.76s-.09.25-.31.26c-.46,0-.92,0-1.38,0-.18,0-.3.09-.25.33a2.4,2.4,0,0,1,0,1.19.11.11,0,0,0,0,0c-.28-.13-.53.12-.81,0a9.48,9.48,0,0,0-1.3,0c-.62-.07-1.21.09-1.83,0A10.11,10.11,0,0,0,62,44c-.46,0-.94,0-1.4,0-.06,0-.13-.07-.19-.12s-.14-.11-.23-.06a3.8,3.8,0,0,1-1.77.15,4.3,4.3,0,0,1-1,.07c-.34-.08-.68.09-1-.08s-.63,0-1,0c-.07,0-.17.07-.19,0-.11-.42-.59-.49-.78-.82,0-.06-.11-.12-.1-.15.14-.42-.24-.48-.44-.68-.58-.56-1.15-1.14-1.72-1.71l-1.06-1.1c-.07-.07-.13-.19-.25-.14s-.09.17-.09.27c0,.59,0,1.19,0,1.78s0,1,0,1.52c0,1.75,0,3.49,0,5.24,0,1,0,2.1,0,3.14.07,1.45-.07,2.89,0,4.34,0,.77,0,1.55,0,2.32,0,.18-.12.22-.25.18-.57-.19-1.13-.4-1.7-.6a.36.36,0,0,1-.23-.39c0-1.13,0-2.26,0-3.39s0-2.54,0-3.81c0-2.43-.08-4.86,0-7.29,0-.26-.08-.37-.38-.37a1.21,1.21,0,0,0-.92.37,8.35,8.35,0,0,1-1,.82,1.36,1.36,0,0,0-.5,1.32,6.83,6.83,0,0,1-.06,1.63,10.79,10.79,0,0,0,0,1.39c-.07,1.71-.11,3.42-.16,5.12a20.16,20.16,0,0,0-.1,2.69c.05.56-.08.64-.64.69l-2.61.26a.28.28,0,0,0-.17,0c-.22.17-.3,0-.3-.17,0-.73-.08-1.47,0-2.18.09-1,0-2.09,0-3.13s-.06-2.05,0-3.07c0-1.44-.05-2.88,0-4.33,0-.43,0-.86,0-1.29,0-.23-.09-.31-.32-.29-.88.07-1.75.12-2.63.17s-.88,0-.87,1c0,1.47,0,2.94,0,4.41,0,1.76,0,3.52,0,5.27,0,.22,0,.36-.31.36-1.48,0-2.95.06-4.43.11-.85,0-1.71.06-2.56.05s-2,.13-3,.12c-.79,0-1.57,0-2.36.08-.3,0-.29-.16-.3-.35,0-.8,0-1.6-.05-2.4,0-1.22-.09-2.45-.11-3.68,0-1.58-.06-3.15-.07-4.72,0-.2-.06-.29-.26-.29l-4.51-.05c-1.14,0-2.28-.07-3.42-.09-.85,0-1.71,0-2.56,0-.44,0-.88,0-1.33,0-.21,0-.16-.15-.17-.27a22.25,22.25,0,0,1,0-2.31c0-1.08,0-2.16.06-3.23s0-2.22.12-3.33c.06-.71,0-1.44.06-2.16.08-2,.16-4,.19-6,0-1.1.07-2.2.09-3.3a.58.58,0,0,1,.12-.38,12.11,12.11,0,0,1,1.3-.39,23.54,23.54,0,0,0,3.48-.85,9.4,9.4,0,0,1,2.53-.57.68.68,0,0,0,.59-.4,14.31,14.31,0,0,1,.87-1.32,9.52,9.52,0,0,1,1.05-1.36A26.67,26.67,0,0,0,25,13.72c.47-.64.92-1.29,1.37-1.94a.39.39,0,0,1,.46-.17,16.88,16.88,0,0,0,2.12.41c.88.21,1.78.31,2.68.46,1.34.22,2.67.49,4,.68a14.26,14.26,0,0,1,1.74.22c.72.19,1.45.26,2.18.41.9.18,1.82.28,2.72.48,1.18.26,2.37.42,3.57.6a.54.54,0,0,1,.49.33,5.41,5.41,0,0,0,.42.79c.15.31.32.6.47.91.27.53.63,1,.93,1.53.7,1.25,1.32,2.55,2,3.81a5.25,5.25,0,0,1,.71,1.49.35.35,0,0,0,.33.28,9.84,9.84,0,0,0,1.2.15c.73-.05,1.44.25,2.17.19a.4.4,0,0,1,.15,0,20.85,20.85,0,0,0,2.09.22c.64.07,1.27.2,1.91.23s1.4.22,2.12.25a1.86,1.86,0,0,1,.47.09c.21,0,.36.27.6.16s.66.09,1,.08c.13,0,.08.16.07.26-.25,0-.35.17-.44.33s0,.21.17.24A.39.39,0,0,0,62.3,26.71ZM31.65,20.93a1.21,1.21,0,0,1,0,.19c-.11.4.08.49.44.52,1.54.17,3.07.39,4.6.55,1.33.14,2.66.33,4,.51.39.05.46-.09.46-.42,0-1.79,0-3.57,0-5.36a.33.33,0,0,0-.33-.38L40,16.43c-1.44-.23-2.87-.47-4.31-.67-1.23-.17-2.45-.37-3.68-.58-.26,0-.4,0-.39.32C31.64,17.31,31.55,19.12,31.65,20.93ZM30.28,35.39h.08a4.68,4.68,0,0,1,0-.53c0-.34-.1-.41-.43-.43-1-.06-2,0-3,0q-2.79,0-5.58-.12c-.4,0-.45.15-.45.5,0,1-.09,1.92-.14,2.88,0,.69-.08,1.39-.11,2.08,0,.17,0,.31.23.32l2.16.08c1.19,0,2.39,0,3.58.08s2.22,0,3.33.11c.16,0,.23-.06.23-.22,0-.69.08-1.38.09-2.07C30.29,37.14,30.28,36.27,30.28,35.39ZM26.39,24.54h.08V23c0-.21-.06-.32-.3-.35-1.62-.18-3.23-.38-4.84-.57-.29,0-.41.06-.4.37,0,.79,0,1.57,0,2.36,0,1.14,0,2.28,0,3.42s0,2.46,0,3.69c0,.33.11.43.41.43h1.25l3.35.1c.17,0,.37,0,.38-.24,0-.92,0-1.84,0-2.77C26.42,27.83,26.39,26.18,26.39,24.54Zm10,10.21H32c-.29,0-.37.11-.36.39,0,.77.07,1.54.08,2.32s0,1.52,0,2.27c0,.34.13.46.48.46,1,0,2,0,3,0,1.86,0,3.72.06,5.58.11.34,0,.41-.11.4-.41,0-1.58-.06-3.17-.07-4.76,0-.32-.1-.4-.41-.4C39.29,34.76,37.86,34.75,36.43,34.75Zm8.59.31v.09H42.44c-.34,0-.46.15-.43.5.13,1.56.23,3.11.33,4.67,0,.23.1.32.33.3l1.14,0c1.41,0,2.81,0,4.22-.08.74,0,.73,0,.73-.79,0-1.4,0-2.79,0-4.19,0-.49,0-.48-.46-.48Zm-4.06-8V24.55c0-.25-.06-.37-.35-.36s-.63,0-1,0l-2.21-.09c-.24,0-.32.1-.27.33a7.44,7.44,0,0,1,0,1.7c-.06,1.23,0,2.45,0,3.67-.05,1,.06,2.1,0,3.16,0,.18,0,.32.28.33,1.1.06,2.2.15,3.29.24.24,0,.34-.08.3-.31a8.17,8.17,0,0,1,0-1.4C41,30.21,40.91,28.64,41,27.06ZM18.84,25.91h-.08V23.58c0-.1,0-.21-.09-.27s-.18.05-.26.11-.36.32-.55.47a.85.85,0,0,0-.33.75c0,1.11,0,2.21,0,3.32,0,1.61-.05,3.23-.07,4.85,0,2.2,0,4.39,0,6.58,0,.7,0,.7.68.72.86,0,.85,0,.83-.8,0-1.65-.1-3.29-.11-4.94C18.82,31.55,18.84,28.73,18.84,25.91Zm-2.25-.72h0V23.82c0-.08,0-.19-.09-.22s-.11,0-.15.08a4.23,4.23,0,0,0-1,2.75c.14,2.28.05,4.57.09,6.86,0,2.07.06,4.13.09,6.2,0,.7,0,.7.7.68.23,0,.33-.06.31-.3s0-.54,0-.8q0-3.26,0-6.49Q16.59,28.89,16.59,25.19Zm-2,12.8v-1.4c0-1.33,0-2.66,0-4s0-2.53.1-3.8c.08-1.62,0-3.25.1-4.86a1.06,1.06,0,0,0-.46-1c-.06,0-.11-.15-.22-.1s-.06.15-.07.23c0,.52,0,1,0,1.56,0,.9-.08,1.79-.11,2.69,0,.62,0,1.25-.05,1.86-.1.92,0,1.85-.13,2.77-.07.73,0,1.47-.05,2.2,0,1.93-.12,3.85-.17,5.77a.19.19,0,0,0,.21.22l.41,0c.25,0,.37-.08.38-.38C14.5,39.18,14.59,38.59,14.56,38Zm11,13.17h0c0,.19,0,.38,0,.57s.05.38.33.36a6.15,6.15,0,0,1,1,0c.37,0,.47-.13.47-.48,0-1.08-.11-2.16-.06-3.24.06-1.45-.1-2.91,0-4.37a1,1,0,0,0-.33-.73.7.7,0,0,0-.8-.19.82.82,0,0,0-.48.8c-.06,1.16,0,2.33,0,3.49S25.56,49.9,25.56,51.16Zm4-.07c0-1.37.06-2.74,0-4.11-.06-.95,0-1.89,0-2.84a1.46,1.46,0,0,0-.11-.66c-.17-.29-.37-.56-.77-.5a.66.66,0,0,0-.62.66c0,.21-.05.43-.05.64,0,1.69,0,3.38,0,5.06a11.25,11.25,0,0,0,0,2c0,.23-.2.55.08.69a1.52,1.52,0,0,0,.79,0C29.7,51.94,29.71,51.94,29.6,51.09Zm.61-1.57h0c0,.72,0,1.44,0,2.17,0,.2,0,.32.26.31H31.6c.19,0,.27-.09.28-.28,0-.62,0-1.24,0-1.86,0-1.53-.09-3.07-.07-4.6,0-.34,0-.69,0-1a1,1,0,0,0-.89-1,.92.92,0,0,0-.7,1.06,3.87,3.87,0,0,1,0,.9C30.2,46.63,30.21,48.07,30.21,49.52Zm6.58-4.18h-.07c0-.45,0-.91,0-1.36a.91.91,0,0,0-.86-.85.7.7,0,0,0-.69.72l0,3.87,0,1.44c0,.82,0,1.64,0,2.46a.23.23,0,0,0,.29.26,5.9,5.9,0,0,1,1,0c.25,0,.38-.07.38-.37,0-.81,0-1.62,0-2.43C36.78,47.83,36.79,46.59,36.79,45.34ZM34.5,45.1h-.08c0-.36,0-.71,0-1.07a1,1,0,0,0-.82-.86.81.81,0,0,0-.72.9c0,1.37,0,2.74,0,4.11,0,1.17,0,2.33,0,3.5,0,.22.09.29.3.28s.73-.05,1.1-.05.28-.11.28-.31C34.49,49.44,34.5,47.27,34.5,45.1Zm14-19.89c-.42-.12-.51.07-.5.43,0,1,0,2,0,3,0,1.56,0,3.12,0,4.67a.33.33,0,0,0,.16.36l.63.35c.18.1.25,0,.26-.16a4.37,4.37,0,0,1,.06-.72c.21-1.23.31-2.47.47-3.71s.31-2.62.48-3.92c0-.25,0-.34-.25-.34Zm.6-1.7c.24,0,.39,0,.24-.3-.59-1.14-1.19-2.28-1.8-3.41-.19-.36-.28-.38-.6-.13-1.23,1-2.43,2-3.7,3-.07.05-.12.11-.1.19s.1.1.18.11l1.09.12Zm-17.8,3a13.27,13.27,0,0,1,0-1.41.85.85,0,0,0-.83-.82.7.7,0,0,0-.7.7c0,1,0,2,0,3,0,.57,0,1.13,0,1.7s-.06,1.23,0,1.85c0,.19,0,.35.27.32a5.78,5.78,0,0,1,1.1,0c.25,0,.34-.1.32-.35a8.41,8.41,0,0,1-.06-1.33C31.35,29,31.23,27.77,31.3,26.54Zm4.13,5.67a4,4,0,0,1,.49,0c.32,0,.4-.13.38-.41-.1-1.13,0-2.26-.06-3.39,0-.88,0-1.77,0-2.66a.76.76,0,0,0-.56-.77.68.68,0,0,0-.94.71c0,.82-.08,1.62-.06,2.43,0,1.12,0,2.23,0,3.34C34.61,32.26,34.61,32.26,35.43,32.21ZM33.85,28.7c0-1.25,0-2.31,0-3.38a.75.75,0,0,0-.81-.68.66.66,0,0,0-.69.69c0,1.08-.07,2.17-.07,3.25s0,2.05,0,3.08c0,.28.05.43.38.37a3.52,3.52,0,0,1,.65,0c.64,0,.65,0,.61-.65C33.84,30.42,33.93,29.47,33.85,28.7Zm-4.74-7.25c.08,0,.17.05.21,0s0-.22-.12-.3C28.15,20,27.1,19,26.08,17.84c-.32-.36-.38-.32-.63.11-.56.94-1.13,1.89-1.72,2.81-.17.27-.09.34.15.36l1.21.12Zm-1.8,6.17h-.13c0,.49,0,1,0,1.48l0,2.32c0,.17.06.27.25.26l1.1-.05c.18,0,.23-.11.23-.27,0-.76,0-1.52,0-2.28,0-1.18,0-2.36,0-3.54,0-.37.1-.76-.14-1.11a.66.66,0,0,0-1.24.27C27.3,25.67,27.31,26.65,27.31,27.62Zm3-11c0-.51-.07-1-.09-1.55,0-.2-.13-.24-.29-.27l-2.26-.47c-.23,0-.4,0-.48.24-.13.4-.26.79-.4,1.18a.3.3,0,0,0,.09.36c1,1,2.07,2,3.11,3,.08.07.15.19.28.12s.06-.19.05-.28A15.49,15.49,0,0,1,30.29,16.66Zm13.21.22c-.28,0-.58.05-.89.06s-.33.11-.33.35c0,1.13-.12,2.25-.16,3.38,0,.12-.11.27,0,.35s.26-.07.36-.15l3.4-2.71c.1-.08.19-.15.14-.31a5.06,5.06,0,0,1-.18-.77c0-.25-.14-.31-.38-.3A18.73,18.73,0,0,1,43.5,16.88Zm1.16,16.8h0c.68,0,1.35,0,2,0,.32,0,.41-.15.39-.42a5.46,5.46,0,0,1,0-.8c.12-1.12,0-2.26.09-3.38s0-2.54.07-3.8c0-.16,0-.29-.2-.3s-.23.14-.23.3c0,.67,0,1.34,0,2,0,1,0,2,0,3.08a13.84,13.84,0,0,0,0,1.44c0,.75.07.74-.64.73-1,0-2.08-.06-3.12-.14-.65,0-.65,0-.62.62a.61.61,0,0,1,0,.19c-.11.39.08.49.43.49ZM57.4,31.39c0-1.27-.08-2.54-.09-3.81,0-.46-.32-.86-.65-.84s-.5.34-.51.82c0,1.62,0,3.24,0,4.86,0,1.14,0,1.14,1,1.11h0c.18,0,.27-.07.26-.27C57.39,32.64,57.4,32,57.4,31.39Zm1.81-3.11V27.9a2.41,2.41,0,0,0,0-.38.66.66,0,0,0-.6-.62.59.59,0,0,0-.54.63c.06,1,0,1.95,0,2.93s0,1.84,0,2.77c0,.38,0,.46.45.45a4.84,4.84,0,0,1,.53,0c.29,0,.35-.1.33-.36C59.21,31.61,59.32,29.92,59.21,28.28ZM61,29.46h-.1V27.67a.61.61,0,0,0-.81-.61.77.77,0,0,0-.36.67c0,.29.06.58,0,.87,0,.73,0,1.47,0,2.2A14.17,14.17,0,0,0,59.74,33c0,.27-.25.63.08.79a2.12,2.12,0,0,0,.87,0h.07a.21.21,0,0,0,.19-.24C60.94,32.16,61,30.81,61,29.46ZM43,30.26H43c0,.15,0,.3,0,.46,0,.66,0,.66.64.62h.19c.52,0,.55,0,.52-.56-.08-1.45,0-2.91,0-4.37a.69.69,0,0,0-.67-.68c-.38,0-.52.17-.53.61A14.73,14.73,0,0,0,43,28C43.06,28.72,43,29.49,43,30.26Zm3.14-2.79a2.73,2.73,0,0,0,0-.9c-.07-.33-.23-.53-.56-.53s-.49.22-.49.55c0,.83-.09,1.66-.05,2.5a16.6,16.6,0,0,0,0,1.73c.09.66.08.65.77.66.32,0,.46,0,.44-.44C46.12,29.85,46.16,28.66,46.16,27.47ZM43,48.56a10.22,10.22,0,0,1,.1,1.56c0,.22.1.29.3.29s.26-.1.26-.29c-.06-1.37-.12-2.73-.11-4.1,0-.21-.08-.29-.3-.28s-.26.11-.26.31C43,46.89,43,47.72,43,48.56Zm1.11,1.12c0,.14,0,.28,0,.42s.13.23.28.24.19-.12.19-.26a7.51,7.51,0,0,1,0-.95c.09-1-.1-2.07-.06-3.11,0-.23-.17-.21-.32-.21s-.26.09-.23.26C44.12,47.27,44,48.48,44.08,49.68Zm-1.41-2.46h-.06c0-.37,0-.74,0-1.11a.24.24,0,0,0-.26-.27c-.18,0-.21.14-.21.3.07,1.34.06,2.69.06,4,0,.18,0,.31.24.31s.24-.11.24-.3C42.67,49.19,42.67,48.2,42.67,47.22Z"/><path class="cls-3" d="M62.3,26.71a.39.39,0,0,1,.43-.47c.14-.17.3-.33.27-.57s.06-.26-.07-.26c-.34,0-.65-.24-1-.08s-.39-.12-.6-.16a1.86,1.86,0,0,0-.47-.09c-.72,0-1.42-.22-2.12-.25s-1.27-.16-1.91-.23a20.85,20.85,0,0,1-2.09-.22.4.4,0,0,0-.15,0c-.73.06-1.44-.24-2.17-.19a9.84,9.84,0,0,1-1.2-.15.35.35,0,0,1-.33-.28,5.25,5.25,0,0,0-.71-1.49c-.7-1.26-1.32-2.56-2-3.81-.3-.52-.66-1-.93-1.53-.15-.31-.32-.6-.47-.91a5.41,5.41,0,0,1-.42-.79.54.54,0,0,0-.49-.33c-1.2-.18-2.39-.34-3.57-.6-.9-.2-1.82-.3-2.72-.48-.73-.15-1.46-.22-2.18-.41a14.26,14.26,0,0,0-1.74-.22c-1.35-.19-2.68-.46-4-.68-.9-.15-1.8-.25-2.68-.46a16.88,16.88,0,0,1-2.12-.41.39.39,0,0,0-.46.17c-.45.65-.9,1.3-1.37,1.94a26.67,26.67,0,0,1-1.87,2.47,9.52,9.52,0,0,0-1.05,1.36,14.31,14.31,0,0,0-.87,1.32.68.68,0,0,1-.59.4,9.4,9.4,0,0,0-2.53.57,23.54,23.54,0,0,1-3.48.85,12.11,12.11,0,0,0-1.3.39c-.16-.28-.59-.43-.4-.87,0-.06-.08-.11-.15-.16a.7.7,0,0,1-.38-.61.32.32,0,0,0-.18-.27.53.53,0,0,1-.25-.44.8.8,0,0,0-.29-.59.67.67,0,0,1,.08-1,.37.37,0,0,0-.09-.53.73.73,0,0,1-.24-.75c0-.39.11-.77.15-1.16s.19-.29.4-.28c.59,0,1.17,0,1.75.06.35,0,.46-.13.45-.44,0-2.28-.07-4.57-.06-6.85,0-1.43,0-2.86-.07-4.29,0-.46,0-.45.48-.37,1.15.21,2.3.42,3.45.57s2,.41,3,.55,1.9.3,2.83.51c1.28.28,2.59.43,3.87.74a2.45,2.45,0,0,0,1.79-.19c.71-.39,1.44-.72,2.17-1.09a.79.79,0,0,1,.82.06,9.74,9.74,0,0,0,1.84,1.1c.13,0,.22.19.35.28a17.93,17.93,0,0,0,2.62,1.59,3.81,3.81,0,0,0,1.22.21c.67.09,1.35.17,2,.28.33,0,.54.32.78.52,2,1.62,4,3.22,5.9,4.87,1.12,1,2.27,1.87,3.41,2.78A5.88,5.88,0,0,1,52,17.35a15.78,15.78,0,0,1,.77,1.47c.08.2.22.24.43.18.46-.13.94-.2,1.4-.32a.48.48,0,0,1,.45.09l3,2.05c1.65,1.14,3.28,2.29,4.94,3.4.34.23.65.44.62.85s0,.81,0,1.21a.18.18,0,0,1-.14.17C63,26.5,62.69,26.74,62.3,26.71Z"/><path class="cls-2" d="M65.31,46.23c0,1.67.13,3.33.14,5,0,2.23.11,4.45.15,6.68,0,.27-.07.35-.33.38-1.06.08-2.1.2-3.16.22-.78,0-1.55.16-2.33.2-1.06,0-2.12.12-3.18.24-.21,0-.29-.08-.29-.29-.06-1.71-.1-3.42-.09-5.13,0-1-.14-1.93-.11-2.88,0-1.34-.13-2.68,0-4,0-.42-.07-.85-.06-1.28s0-.49.53-.54c1.25-.11,2.51,0,3.76-.13,1-.08,2,0,3.05-.1a14.61,14.61,0,0,0,1.62,0c.26,0,.38,0,.36.33,0,.46,0,.91,0,1.37Z"/><path class="cls-3" d="M50.26,35.36a2.71,2.71,0,0,0,.2-1.22c.07-1.13,0-2.28.12-3.4a14.72,14.72,0,0,1,.14-2.1c.06-.2.12-.34.32-.41a4.2,4.2,0,0,0,.81-.5c.3.1.29.38.3.6,0,.48,0,1,0,1.44.07,1,0,2.05.11,3.08a2.08,2.08,0,0,0,.76.94c.59.52,1.07,1.14,1.64,1.66a1,1,0,0,0,.73.34c1.44,0,2.88.13,4.32.16.76,0,1.52,0,2.27.07.21,0,.34,0,.16-.26a2.82,2.82,0,0,0,.06-1.26,4.69,4.69,0,0,1,.21-2.07A20.24,20.24,0,0,1,64,34.29a7.45,7.45,0,0,0,1.17,1.34c.17.15.21.36.35.53q1.78,2.16,3.54,4.35c.08.09.23.17.18.34S69,41,68.83,41c-.68,0-1.37,0-2,0-1.12,0-2.23.09-3.35.13-1.9.07-3.8.1-5.7.14-.6,0-1.2.06-1.78.06s-1.19.11-1.78.06c-.43,0-.67-.43-1-.64s-.27-.4-.41-.59c-.41-.57-.87-1.1-1.32-1.64a7.41,7.41,0,0,1-.65-.72,16.32,16.32,0,0,1-1.31-1.67l.79-.48C50.38,35.55,50.45,35.45,50.26,35.36Z"/><path class="cls-2" d="M8.34,9.12A1.9,1.9,0,0,0,8.56,8c0-.09,0-.19,0-.26-.26-.22-.17-.54-.12-.77a5.58,5.58,0,0,0-.06-1.53c0-.27.18-.5.1-.82a3.16,3.16,0,0,1,0-.86.67.67,0,0,1,.15-.49c.16-.15.11-.29-.06-.4A1.43,1.43,0,0,1,8,2.24a.78.78,0,0,0-.45-.44c-.11,0-.38-.12-.19-.29.51-.44.83-1,1.38-1.44A.41.41,0,0,1,9.4.34a1.58,1.58,0,0,0,.24.73c.11.22.09.56.18.68.3.38.13.63,0,1s-.14.71-.3,1a1.16,1.16,0,0,0-.08.56.58.58,0,0,1-.16.46.72.72,0,0,0-.18.49c0,.67.38.81.86.94.11,0,.26.1.16.3A2.08,2.08,0,0,0,10,7.72a.5.5,0,0,1-.12.39.72.72,0,0,0-.13.69A4.09,4.09,0,0,1,10,10.57c-.06.28.09.58.06.89a12.47,12.47,0,0,0,0,1.5c0,.35,0,.71,0,1.06,0,.64,0,1.27,0,1.9s0,1,0,1.55a10.88,10.88,0,0,1,0,1.4c0,.61-.12,1.22-.08,1.82.06.91,0,1.81,0,2.71s.07,1.8.09,2.69,0,2.07,0,3.1a2.7,2.7,0,0,0,0,.75c0,.15,0,.33-.05.47,0,.31-.23.59-.11.93a1,1,0,0,1,0,.58,3.88,3.88,0,0,0,0,1.48c.08.55,0,1.11,0,1.74a5.89,5.89,0,0,1-1.18-1.28c-.12-.25-.41-.31-.51-.58s-.27-.36,0-.59-.09-.23-.08-.4a8.68,8.68,0,0,1,.14-2.21.92.92,0,0,0-.1-.71c-.16-.22-.08-.39,0-.61a3,3,0,0,0,0-1.07,9.54,9.54,0,0,1,0-1.31c0-.67,0-1.34,0-2a.49.49,0,0,1,0-.17c.12-.37-.12-.78.16-1.13,0-.07,0-.17-.08-.24a.34.34,0,0,1-.06-.33c.23-.46.05-.94.08-1.4a17.74,17.74,0,0,1,.06-2.63A1.14,1.14,0,0,0,8.42,18c0-.18-.1-.35.08-.5s.05-.23,0-.34a1.49,1.49,0,0,1-.09-.81c0-.35-.15-.46-.47-.32L6,16.93a2.39,2.39,0,0,1-.64.26.64.64,0,0,0-.46.4,7.49,7.49,0,0,0-.46,1.53c-.09.46-.22.9-.35,1.35a14.12,14.12,0,0,0-.55,2A7.68,7.68,0,0,1,3,24.29a3.07,3.07,0,0,0-.26,1.19,1.45,1.45,0,0,1-.21.72c-.13.34-.07.75-.36,1s.07.28,0,.45c-.17.41-.28.85-.41,1.28a.41.41,0,0,0,0,.22.18.18,0,0,1-.17.26c-.1,0-.2-.09-.18-.27.06-.36.09-.74-.29-1-.07,0-.12-.12-.22-.12-.35,0-.25-.17-.17-.36a.78.78,0,0,0,.05-.18c0-.34.39-.58.39-.93a1.85,1.85,0,0,1,.2-.86,2.5,2.5,0,0,0,.23-.89c.09-.75.4-1.44.56-2.17s.32-1.38.53-2.07A12,12,0,0,0,3.17,19c.07-.52.23-1,.34-1.5.07-.32.12-.64.21-.95s.2-.61.26-.93.07-.92.56-1.13a2.42,2.42,0,0,0,.79-.63c.18-.19.35-.44.61-.49s.51-.35.74-.56c.06,0,0-.17.13-.21a6.42,6.42,0,0,0,1.32-1,1,1,0,0,0,.44-.75,14,14,0,0,1,0-1.45C8.56,9.24,8.51,9.14,8.34,9.12Z"/><path class="cls-3" d="M8.34,9.12c.17,0,.22.12.22.29a14,14,0,0,0,0,1.45,1,1,0,0,1-.44.75,6.42,6.42,0,0,1-1.32,1c-.09,0-.07.16-.13.21-.23.21-.39.49-.74.56s-.43.3-.61.49a2.42,2.42,0,0,1-.79.63c-.49.21-.48.72-.56,1.13s-.17.62-.26.93-.14.63-.21.95c-.11.5-.27,1-.34,1.5a12,12,0,0,1-.45,1.63c-.21.69-.37,1.39-.53,2.07s-.47,1.42-.56,2.17a2.5,2.5,0,0,1-.23.89,1.85,1.85,0,0,0-.2.86c0,.35-.34.59-.39.93a.78.78,0,0,1-.05.18c-.3.3-.48,0-.67-.15s0-.25.08-.37a6.83,6.83,0,0,0,.5-1.65c.22-.88.44-1.76.62-2.64s.52-1.79.67-2.71c.09-.59.31-1.15.43-1.73s.35-1.38.51-2.08a21.3,21.3,0,0,1,.64-2.5c.13-.36.53-.64.82-.93,1.25-1.25,2.56-2.42,3.77-3.71C8.18,9.18,8.22,9.08,8.34,9.12Z"/><path class="cls-3" d="M62.31,27.21h0l0,0Z"/><path class="cls-4" d="M31.65,20.93c-.1-1.81,0-3.62-.07-5.43,0-.32.13-.36.39-.32,1.23.21,2.45.41,3.68.58,1.44.2,2.87.44,4.31.67l.82.11a.33.33,0,0,1,.33.38c0,1.79,0,3.57,0,5.36,0,.33-.07.47-.46.42-1.33-.18-2.66-.37-4-.51-1.53-.16-3.06-.38-4.6-.55-.36,0-.55-.12-.44-.52A1.21,1.21,0,0,0,31.65,20.93Z"/><path class="cls-4" d="M30.28,35.39c0,.88,0,1.75,0,2.63,0,.69-.06,1.38-.09,2.07,0,.16-.07.23-.23.22-1.11-.07-2.22,0-3.33-.11s-2.39-.05-3.58-.08L20.89,40c-.23,0-.24-.15-.23-.32,0-.69.07-1.39.11-2.08.05-1,.11-1.92.14-2.88,0-.35.05-.51.45-.5q2.79.09,5.58.12c1,0,2,0,3,0,.33,0,.47.09.43.43a4.68,4.68,0,0,0,0,.53Z"/><path class="cls-4" d="M26.39,24.54c0,1.64,0,3.29,0,4.93,0,.93,0,1.85,0,2.77,0,.28-.21.24-.38.24l-3.35-.1H21.38c-.3,0-.42-.1-.41-.43,0-1.23,0-2.46,0-3.69s0-2.28,0-3.42c0-.79,0-1.57,0-2.36,0-.31.11-.41.4-.37,1.61.19,3.22.39,4.84.57.24,0,.3.14.3.35v1.52Z"/><path class="cls-4" d="M36.43,34.75c1.43,0,2.86,0,4.3,0,.31,0,.41.08.41.4,0,1.59,0,3.18.07,4.76,0,.3-.06.42-.4.41-1.86-.05-3.72-.08-5.58-.11-1,0-2,0-3,0-.35,0-.48-.12-.48-.46,0-.75,0-1.51,0-2.27s0-1.55-.08-2.32c0-.28.07-.39.36-.39Z"/><path class="cls-4" d="M45,35.06H48.3c.47,0,.47,0,.46.48,0,1.4,0,2.79,0,4.19,0,.75,0,.77-.73.79-1.41,0-2.81.06-4.22.08l-1.14,0c-.23,0-.31-.07-.33-.3-.1-1.56-.2-3.11-.33-4.67,0-.35.09-.5.43-.5H45Z"/><path class="cls-4" d="M41,27.06c-.05,1.58.08,3.15.06,4.72a8.17,8.17,0,0,0,0,1.4c0,.23-.06.33-.3.31-1.09-.09-2.19-.18-3.29-.24-.28,0-.29-.15-.28-.33.07-1.06,0-2.11,0-3.16.06-1.22,0-2.44,0-3.67a7.44,7.44,0,0,0,0-1.7c0-.23,0-.34.27-.33l2.21.09c.32,0,.63.06,1,0s.35.11.35.36Z"/><path class="cls-4" d="M18.84,25.91c0,2.82,0,5.64,0,8.46,0,1.65.07,3.29.11,4.94,0,.83,0,.83-.83.8-.68,0-.68,0-.68-.72,0-2.19,0-4.38,0-6.58,0-1.62.05-3.24.07-4.85,0-1.11,0-2.21,0-3.32a.85.85,0,0,1,.33-.75c.19-.15.37-.32.55-.47s.14-.17.26-.11.09.17.09.27v2.33Z"/><path class="cls-4" d="M16.59,25.19q0,3.7,0,7.39,0,3.24,0,6.49c0,.26,0,.53,0,.8s-.08.3-.31.3c-.7,0-.69,0-.7-.68,0-2.07,0-4.13-.09-6.2,0-2.29.05-4.58-.09-6.86a4.23,4.23,0,0,1,1-2.75c0-.06.08-.1.15-.08s.09.14.09.22v1.37Z"/><path class="cls-4" d="M14.56,38c0,.6-.06,1.19-.07,1.78,0,.3-.13.38-.38.38l-.41,0a.19.19,0,0,1-.21-.22c0-1.92.13-3.84.17-5.77,0-.73,0-1.47.05-2.2.09-.92,0-1.85.13-2.77.06-.61,0-1.24.05-1.86,0-.9.08-1.79.11-2.69,0-.52,0-1,0-1.56,0-.08,0-.19.07-.23s.16.05.22.1a1.06,1.06,0,0,1,.46,1c-.07,1.61,0,3.24-.1,4.86-.07,1.27,0,2.53-.1,3.8s0,2.66,0,4Z"/><path class="cls-4" d="M25.56,51.16c0-1.26,0-2.53,0-3.79s0-2.33,0-3.49a.82.82,0,0,1,.48-.8.7.7,0,0,1,.8.19,1,1,0,0,1,.33.73c-.07,1.46.09,2.92,0,4.37-.05,1.08.08,2.16.06,3.24,0,.35-.1.51-.47.48a6.15,6.15,0,0,0-1,0c-.28,0-.36-.1-.33-.36s0-.38,0-.57Z"/><path class="cls-4" d="M29.6,51.09c.11.85.1.85-.75.94a1.52,1.52,0,0,1-.79,0c-.28-.14,0-.46-.08-.69a11.25,11.25,0,0,1,0-2c0-1.68,0-3.37,0-5.06,0-.21,0-.43.05-.64a.66.66,0,0,1,.62-.66c.4-.06.6.21.77.5a1.46,1.46,0,0,1,.11.66c0,1,0,1.89,0,2.84C29.66,48.35,29.6,49.72,29.6,51.09Z"/><path class="cls-4" d="M30.21,49.52c0-1.45,0-2.89,0-4.34a3.87,3.87,0,0,0,0-.9.92.92,0,0,1,.7-1.06,1,1,0,0,1,.89,1c0,.34,0,.69,0,1,0,1.53.06,3.07.07,4.6,0,.62,0,1.24,0,1.86,0,.19-.09.28-.28.28H30.46c-.23,0-.26-.11-.26-.31,0-.73,0-1.45,0-2.17Z"/><path class="cls-4" d="M36.79,45.34c0,1.25,0,2.49,0,3.73,0,.81,0,1.62,0,2.43,0,.3-.13.39-.38.37a5.9,5.9,0,0,0-1,0,.23.23,0,0,1-.29-.26c0-.82,0-1.64,0-2.46l0-1.44,0-3.87a.7.7,0,0,1,.69-.72.91.91,0,0,1,.86.85c0,.45,0,.91,0,1.36Z"/><path class="cls-4" d="M34.5,45.1c0,2.17,0,4.34,0,6.5,0,.2-.06.31-.28.31s-.74,0-1.1.05-.31-.06-.3-.28c0-1.17,0-2.33,0-3.5,0-1.37,0-2.74,0-4.11a.81.81,0,0,1,.72-.9,1,1,0,0,1,.82.86c0,.36,0,.71,0,1.07Z"/><path class="cls-4" d="M48.5,25.21h1.3c.23,0,.29.09.25.34-.17,1.3-.31,2.61-.48,3.92s-.26,2.48-.47,3.71a4.37,4.37,0,0,0-.06.72c0,.2-.08.26-.26.16l-.63-.35a.33.33,0,0,1-.16-.36c0-1.55,0-3.11,0-4.67,0-1,0-2,0-3C48,25.28,48.08,25.09,48.5,25.21Z"/><path class="cls-4" d="M49.1,23.51l-4.69-.46-1.09-.12c-.08,0-.16,0-.18-.11s0-.14.1-.19c1.27-.94,2.47-2,3.7-3,.32-.25.41-.23.6.13.61,1.13,1.21,2.27,1.8,3.41C49.49,23.49,49.34,23.55,49.1,23.51Z"/><path class="cls-4" d="M31.3,26.54c-.07,1.23.05,2.46,0,3.69a8.41,8.41,0,0,0,.06,1.33c0,.25-.07.36-.32.35a5.78,5.78,0,0,0-1.1,0c-.24,0-.26-.13-.27-.32,0-.62,0-1.24,0-1.85s0-1.13,0-1.7c.06-1,0-2,0-3a.7.7,0,0,1,.7-.7.85.85,0,0,1,.83.82A13.27,13.27,0,0,0,31.3,26.54Z"/><path class="cls-4" d="M35.43,32.21c-.82,0-.82,0-.81-.74,0-1.11.05-2.22,0-3.34,0-.81.08-1.61.06-2.43a.68.68,0,0,1,.94-.71.76.76,0,0,1,.56.77c0,.89,0,1.78,0,2.66,0,1.13,0,2.26.06,3.39,0,.28-.06.44-.38.41A4,4,0,0,0,35.43,32.21Z"/><path class="cls-4" d="M33.85,28.7c.08.77,0,1.72,0,2.67,0,.65,0,.65-.61.65a3.52,3.52,0,0,0-.65,0c-.33.06-.38-.09-.38-.37,0-1,0-2.05,0-3.08s0-2.17.07-3.25a.66.66,0,0,1,.69-.69.75.75,0,0,1,.81.68C33.86,26.39,33.85,27.45,33.85,28.7Z"/><path class="cls-4" d="M29.11,21.45l-4-.21-1.21-.12c-.24,0-.32-.09-.15-.36.59-.92,1.16-1.87,1.72-2.81.25-.43.31-.47.63-.11,1,1.11,2.07,2.2,3.12,3.28.08.08.18.17.12.3S29.19,21.47,29.11,21.45Z"/><path class="cls-4" d="M27.31,27.62c0-1,0-1.95,0-2.92a.66.66,0,0,1,1.24-.27c.24.35.13.74.14,1.11,0,1.18,0,2.36,0,3.54,0,.76,0,1.52,0,2.28,0,.16-.05.26-.23.27l-1.1.05c-.19,0-.26-.09-.25-.26l0-2.32c0-.49,0-1,0-1.48Z"/><path class="cls-4" d="M30.29,16.66a15.49,15.49,0,0,0,0,2.36c0,.09.06.21-.05.28s-.2-.05-.28-.12c-1-1-2.07-2-3.11-3a.3.3,0,0,1-.09-.36c.14-.39.27-.78.4-1.18.08-.24.25-.29.48-.24l2.26.47c.16,0,.28.07.29.27C30.22,15.63,30.26,16.15,30.29,16.66Z"/><path class="cls-4" d="M43.5,16.88a18.73,18.73,0,0,0,2-.1c.24,0,.35,0,.38.3a5.06,5.06,0,0,0,.18.77c0,.16,0,.23-.14.31l-3.4,2.71c-.1.08-.2.23-.36.15s0-.23,0-.35c0-1.13.18-2.25.16-3.38,0-.24.09-.35.33-.35S43.22,16.9,43.5,16.88Z"/><path class="cls-4" d="M44.66,33.68H42.72c-.35,0-.54-.1-.43-.49a.61.61,0,0,0,0-.19c0-.67,0-.67.62-.62,1,.08,2.08.13,3.12.14.71,0,.69,0,.64-.73a13.84,13.84,0,0,1,0-1.44c0-1,0-2.05,0-3.08,0-.67,0-1.34,0-2,0-.16,0-.32.23-.3s.21.14.2.3c0,1.26,0,2.53-.07,3.8s0,2.26-.09,3.38a5.46,5.46,0,0,0,0,.8c0,.27-.07.43-.39.42-.67,0-1.34,0-2,0Z"/><path class="cls-4" d="M57.4,31.39c0,.63,0,1.25,0,1.87,0,.2-.08.28-.26.27h0c-1,0-1,0-1-1.11,0-1.62,0-3.24,0-4.86,0-.48.21-.81.51-.82s.65.38.65.84C57.32,28.85,57.41,30.12,57.4,31.39Z"/><path class="cls-4" d="M59.21,28.28c.11,1.64,0,3.33.1,5,0,.26,0,.39-.33.36a4.84,4.84,0,0,0-.53,0c-.4,0-.46-.07-.45-.45,0-.93.06-1.85,0-2.77s.08-1.95,0-2.93a.59.59,0,0,1,.54-.63.66.66,0,0,1,.6.62,2.41,2.41,0,0,1,0,.38Z"/><path class="cls-4" d="M61,29.46c0,1.35,0,2.7,0,4a.21.21,0,0,1-.19.24h-.07a2.12,2.12,0,0,1-.87,0c-.33-.16,0-.52-.08-.79a14.17,14.17,0,0,1-.05-2.16c0-.73,0-1.47,0-2.2,0-.29-.06-.58,0-.87a.77.77,0,0,1,.36-.67.61.61,0,0,1,.81.61v1.79Z"/><path class="cls-4" d="M43,30.26c0-.77,0-1.54,0-2.3a14.73,14.73,0,0,1,0-1.63c0-.44.15-.61.53-.61a.69.69,0,0,1,.67.68c0,1.46,0,2.92,0,4.37,0,.53,0,.55-.52.56h-.19c-.66,0-.66,0-.64-.62,0-.16,0-.31,0-.46Z"/><path class="cls-4" d="M46.16,27.47c0,1.19,0,2.38,0,3.57,0,.45-.12.45-.44.44-.69,0-.68,0-.77-.66a16.6,16.6,0,0,1,0-1.73c0-.84,0-1.67.05-2.5,0-.33.15-.55.49-.55s.49.2.56.53A2.73,2.73,0,0,1,46.16,27.47Z"/><path class="cls-4" d="M62.12,35.76c.18.22.05.27-.16.26-.75,0-1.51-.06-2.27-.07-1.44,0-2.88-.19-4.32-.16a1,1,0,0,1-.73-.34c-.57-.52-1-1.14-1.64-1.66a2.08,2.08,0,0,1-.76-.94,6.69,6.69,0,0,1,1.08,1c.52.48,1,1,1.51,1.51a.63.63,0,0,0,.47.2c.88,0,1.77,0,2.66.07,1.32.11,2.64.1,4,.14h.2Z"/><path class="cls-4" d="M43,48.56c0-.84,0-1.67,0-2.51,0-.2,0-.3.26-.31s.31.07.3.28c0,1.37,0,2.73.11,4.1,0,.19-.07.29-.26.29s-.33-.07-.3-.29A10.22,10.22,0,0,0,43,48.56Z"/><path class="cls-4" d="M44.08,49.68c-.13-1.2,0-2.41-.13-3.61,0-.17,0-.26.23-.26s.33,0,.32.21c0,1,.15,2.07.06,3.11a7.51,7.51,0,0,0,0,.95c0,.14,0,.27-.19.26s-.28-.06-.28-.24S44.09,49.82,44.08,49.68Z"/><path class="cls-4" d="M42.67,47.22c0,1,0,2,0,3,0,.19,0,.29-.24.3s-.24-.13-.24-.31c0-1.34,0-2.69-.06-4,0-.16,0-.29.21-.3a.24.24,0,0,1,.26.27c0,.37,0,.74,0,1.11Z"/><path class="cls-4" d="M50.26,35.36c.19.09.12.19,0,.27l-.79.48c-.14-.15,0-.25.09-.33Z"/><path class="cls-4" d="M51.85,27.73a4.2,4.2,0,0,1-.81.5c0-.27.53-.88.75-.84S51.93,27.59,51.85,27.73Z"/><path class="cls-4" d="M63,25.67c0,.24-.13.4-.27.57-.13,0-.24-.12-.17-.24S62.75,25.65,63,25.67Z"/><path class="cls-3" d="M61.92,35.75Z"/></g></g></svg>